<?xml version="1.0" encoding="UTF-8"?><!DOCTYPE svg PUBLIC "-//W3C//DTD SVG 1.1//EN" "http://www.w3.org/Graphics/SVG/1.1/DTD/svg11.dtd"><svg xmlns="http://www.w3.org/2000/svg" xmlns:xlink="http://www.w3.org/1999/xlink"><symbol id="HTMLAcademy-logo" viewBox="0 0 27 34">
  <path d="M13.6426 0.0157537L13.5 0L0 1.40733V26.0129L13.5 34L27 26.0129V1.40733L13.6426 0.0157537ZM25.2344 25.0151L13.5 31.9573L1.76561 25.0151V14.9293L13.4507 21.8451L13.4701 23.0984L5.45351 18.3548L5.44295 19.5801L13.4894 24.3885L13.5088 25.675L5.46408 20.9174L5.45351 22.1427L13.5 26.9511L21.6239 22.1182V20.8929V16.909L25.2432 14.7595L25.2344 25.0151ZM25.2344 13.4519L22.0147 15.3319L20.5325 16.2071L13.4666 12.0201L13.456 13.2454L19.4957 16.818L19.4429 16.8495L19.3126 16.9247L18.4536 17.4166L13.4666 14.4689L13.456 15.6942L17.3921 18.0222L16.4591 18.6314L16.438 18.6436L13.4666 16.902L13.456 18.1273L15.4029 19.2615L13.4155 20.4483L1.7973 13.5762L13.4349 6.61831L25.2344 13.4519ZM25.2344 12.2266L13.4401 5.31075L1.76561 12.2196V2.9897L13.5 1.76442L25.2344 2.9897V12.2266Z"/>
</symbol><symbol id="android-logo" viewBox="0 0 43 47">
<path d="M34.8864 14.0617H8.11359C8.11359 14.1718 8.11359 14.282 8.11359 14.3922V33.1955C8.10298 34.1078 8.44648 34.99 9.0745 35.6633C9.70251 36.3367 10.5681 36.7508 11.496 36.8219V44.2751C11.5402 45.0122 11.8701 45.7048 12.4181 46.2114C12.9661 46.7179 13.6909 47 14.444 47C15.1972 47 15.9219 46.7179 16.4699 46.2114C17.0179 45.7048 17.3478 45.0122 17.3921 44.2751V36.842H25.6283V44.2751C25.6726 45.0122 26.0025 45.7048 26.5505 46.2114C27.0985 46.7179 27.8232 47 28.5764 47C29.3296 47 30.0543 46.7179 30.6023 46.2114C31.1503 45.7048 31.4802 45.0122 31.5245 44.2751V36.8219C32.4532 36.7509 33.32 36.3371 33.9496 35.664C34.5793 34.991 34.925 34.1088 34.917 33.1955V14.4023C34.9068 14.2921 34.8966 14.1819 34.8864 14.0617Z" fill="#A4C639"/>
<path d="M2.95318 15.7446C3.73371 15.7446 4.48226 16.0486 5.03417 16.5897C5.58609 17.1307 5.89615 17.8646 5.89615 18.6297V31.0317C5.89749 31.4114 5.82236 31.7876 5.67507 32.1388C5.52777 32.49 5.31121 32.8093 5.03779 33.0782C4.76438 33.3472 4.4395 33.5606 4.08177 33.7062C3.72405 33.8518 3.34052 33.9268 2.95318 33.9268C2.16995 33.9268 1.4188 33.6218 0.864967 33.0788C0.311138 32.5359 0 31.7995 0 31.0317V18.6297C-2.33488e-06 18.25 0.076457 17.874 0.224993 17.5233C0.37353 17.1726 0.591221 16.8541 0.865584 16.5861C1.13995 16.3181 1.46558 16.1058 1.82382 15.9614C2.18206 15.817 2.56585 15.7433 2.95318 15.7446Z" fill="#A4C639"/>
<path d="M40.057 15.7446C40.8375 15.7446 41.5861 16.0486 42.138 16.5897C42.6899 17.1307 43 17.8646 43 18.6297V31.0317C43.0013 31.4114 42.9262 31.7876 42.7789 32.1388C42.6316 32.49 42.415 32.8093 42.1416 33.0782C41.8682 33.3472 41.5433 33.5606 41.1856 33.7062C40.8279 33.8518 40.4444 33.9268 40.057 33.9268C39.2738 33.9268 38.5226 33.6218 37.9688 33.0788C37.415 32.5359 37.1038 31.7995 37.1038 31.0317V18.6297C37.1038 18.25 37.1803 17.874 37.3288 17.5233C37.4774 17.1726 37.6951 16.8541 37.9694 16.5861C38.2438 16.3181 38.5694 16.1058 38.9277 15.9614C39.2859 15.817 39.6697 15.7433 40.057 15.7446Z" fill="#A4C639"/>
<path d="M8.1749 12.0581H34.7433C34.6757 9.30184 33.5048 6.68226 31.4836 4.76521L34.0485 0.497656C34.0753 0.460664 34.0936 0.418348 34.1019 0.373689C34.1103 0.32903 34.1086 0.283115 34.0969 0.239179C34.0852 0.195243 34.0638 0.154355 34.0343 0.119396C34.0047 0.0844363 33.9677 0.0562562 33.9258 0.0368408C33.8548 -0.000483829 33.7719 -0.00986479 33.6941 0.010608C33.6163 0.0310808 33.5493 0.079868 33.5069 0.147036L31.0851 4.30439C28.3256 2.19779 24.9549 1.00508 21.4591 0.898365C17.9845 1.03299 14.6384 2.22325 11.8843 4.30439L9.50332 0.187107C9.46579 0.112239 9.39997 0.0546621 9.31983 0.0266048C9.2397 -0.00145257 9.15156 0.00221937 9.07414 0.0368408C9.00488 0.0802746 8.95485 0.147693 8.93402 0.225666C8.91319 0.303639 8.92308 0.386444 8.96174 0.457585L11.4551 4.69508C9.41279 6.62849 8.2336 9.27542 8.1749 12.0581ZM25.8736 6.84889C25.8736 6.45036 26.0351 6.06816 26.3225 5.78635C26.61 5.50455 26.9998 5.34623 27.4064 5.34623C27.8129 5.34623 28.2028 5.50455 28.4902 5.78635C28.7777 6.06816 28.9391 6.45036 28.9391 6.84889C28.9391 7.24742 28.7777 7.62963 28.4902 7.91143C28.2028 8.19324 27.8129 8.35155 27.4064 8.35155C26.9998 8.35155 26.61 8.19324 26.3225 7.91143C26.0351 7.62963 25.8736 7.24742 25.8736 6.84889ZM14.49 6.84889C14.49 6.45036 14.6515 6.06816 14.939 5.78635C15.2264 5.50455 15.6163 5.34623 16.0228 5.34623C16.4293 5.34623 16.8192 5.50455 17.1067 5.78635C17.3941 6.06816 17.5556 6.45036 17.5556 6.84889C17.5556 7.24742 17.3941 7.62963 17.1067 7.91143C16.8192 8.19324 16.4293 8.35155 16.0228 8.35155C15.6163 8.35155 15.2264 8.19324 14.939 7.91143C14.6515 7.62963 14.49 7.24742 14.49 6.84889Z" fill="#A4C639"/>
</symbol><symbol id="apple-logo" viewBox="0 0 47 56">
<path d="M39.2449 29.7391C39.2544 32.1546 39.994 34.5144 41.3723 36.5268C42.7506 38.5393 44.7071 40.1162 47 41.0627C46.0779 43.8922 44.7301 46.5744 43.0003 49.0227C40.5985 52.4356 38.0949 55.8386 34.1562 55.9273C30.2176 56.0161 29.0676 53.708 24.6303 53.708C20.193 53.708 18.8292 55.8583 15.1654 55.9964C11.5016 56.1345 8.47889 52.2778 6.07705 48.8846C1.1207 41.98 -2.67543 29.246 2.41322 20.6842C3.60995 18.6123 5.34099 16.8769 7.43708 15.6476C9.53317 14.4183 11.9225 13.7373 14.3716 13.6711C18.0964 13.6021 21.6178 16.0976 23.8975 16.0976C26.1772 16.0976 30.4619 13.0892 34.9602 13.533C37.0437 13.6063 39.0815 14.1457 40.9142 15.1091C42.7468 16.0725 44.3247 17.4337 45.5243 19.0863C45.2495 19.254 39.2144 22.657 39.2754 29.7391H39.2449ZM31.9783 8.93654C34.1591 6.45976 35.2387 3.24645 34.9806 0C31.6761 0.302095 28.6167 1.81996 26.4317 4.2414C24.5692 6.33251 22.9307 9.68618 23.3785 12.9018C26.625 13.1484 29.9327 11.3038 31.9478 8.95627" fill="white"/>
</symbol><symbol id="check" viewBox="0 0 22 16">
<path d="M21.7001 0.284331C21.5105 0.102082 21.2557 0 20.9903 0C20.7249 0 20.47 0.102082 20.2805 0.284331L6.70324 13.6028L1.73472 8.72901C1.64045 8.63578 1.52831 8.56178 1.40474 8.51128C1.28118 8.46079 1.14865 8.43479 1.01479 8.43479C0.88093 8.43479 0.748397 8.46079 0.624833 8.51128C0.50127 8.56178 0.389122 8.63578 0.294859 8.72901C0.106004 8.91537 0 9.16747 0 9.43024C0 9.69302 0.106004 9.94512 0.294859 10.1315L5.98331 15.7115C6.07806 15.8037 6.19042 15.8767 6.31396 15.9262C6.4375 15.9756 6.56979 16.0007 6.70324 16C6.96925 15.9989 7.22416 15.8953 7.41303 15.7115L21.7001 1.69675C21.7951 1.60428 21.8705 1.49427 21.922 1.37306C21.9735 1.25186 22 1.12185 22 0.990541C22 0.859234 21.9735 0.729226 21.922 0.608017C21.8705 0.486809 21.7951 0.376798 21.7001 0.284331Z" fill="#D22856"/>
</symbol><symbol id="close-menu-btn" viewBox="0 0 23 23">
<path d="M20.8487 1.37761e-06L0 20.8487L2.15131 23L23 2.15131L20.8487 1.37761e-06Z" fill="white"/>
<path d="M2.15131 0L0 2.15131L20.8487 23L23 20.8487L2.15131 0Z" fill="white"/>
</symbol><symbol id="contrast" viewBox="0 0 32 32">
  <path d="M16 4C18.3734 4 20.6935 4.70379 22.6669 6.02236C24.6402 7.34094 26.1783 9.21509 27.0866 11.4078C27.9948 13.6005 28.2325 16.0133 27.7694 18.3411C27.3064 20.6689 26.1635 22.8071 24.4853 24.4853C22.8071 26.1635 20.6689 27.3064 18.3411 27.7694C16.0133 28.2324 13.6005 27.9948 11.4078 27.0866C9.21509 26.1783 7.34095 24.6402 6.02237 22.6668C4.70379 20.6935 4.00001 18.3734 4.00001 16C4.00001 12.8174 5.26429 9.76515 7.51473 7.51472C9.76516 5.26428 12.8174 4 16 4ZM16 0C12.8355 0 9.74207 0.938384 7.11088 2.69649C4.4797 4.45459 2.42894 6.95345 1.21793 9.87706C0.0069325 12.8007 -0.309921 16.0177 0.307443 19.1214C0.924806 22.2251 2.44866 25.0761 4.6863 27.3137C6.92394 29.5513 9.77487 31.0752 12.8786 31.6926C15.9823 32.3099 19.1993 31.9931 22.1229 30.7821C25.0466 29.5711 27.5454 27.5203 29.3035 24.8891C31.0616 22.2579 32 19.1645 32 16C32 11.7565 30.3143 7.68687 27.3137 4.68629C24.3131 1.68571 20.2435 0 16 0Z"/>
  <path d="M16 24.29C18.1536 24.1422 20.1708 23.1824 21.644 21.6046C23.1172 20.0268 23.9366 17.9486 23.9366 15.79C23.9366 13.6314 23.1172 11.5532 21.644 9.97538C20.1708 8.39759 18.1536 7.43782 16 7.29"/>
</symbol><symbol id="crop" viewBox="0 0 44 44">
  <path d="M32 28H36V12C36 10.9391 35.5786 9.92172 34.8284 9.17157C34.0783 8.42143 33.0609 8 32 8H16V12H32V28ZM12 32V0H8V8H0V12H8V32C8 33.0609 8.42143 34.0783 9.17157 34.8284C9.92172 35.5786 10.9391 36 12 36H32V44H36V36H44V32H12Z"/>
</symbol><symbol id="facebook-ico" viewBox="0 0 54 54">
  <circle cx="27" cy="27" r="25.5" fill="white" stroke="currentColor" stroke-width="3"/>
  <path d="M29.5087 21.1932H32V18H29.0208C25.7612 18.1711 24.5986 20.2714 25.0761 23.8163H23V27.1521H25.0761V36H29.0208V27.1521H31.9792V23.8163H29.0104C28.9896 22.8184 28.9689 21.5259 29.5087 21.1932Z" fill="#D22856"/>
</symbol><symbol id="fill" viewBox="0 0 48 43">
  <path d="M33.12 17.88L15.24 0L12.41 2.83L17.17 7.59L6.88 17.88C6.3182 18.4425 6.00264 19.205 6.00264 20C6.00264 20.795 6.3182 21.5575 6.88 22.12L17.88 33.12C18.4425 33.6818 19.205 33.9974 20 33.9974C20.795 33.9974 21.5575 33.6818 22.12 33.12L33.12 22.12C33.6818 21.5575 33.9974 20.795 33.9974 20C33.9974 19.205 33.6818 18.4425 33.12 17.88ZM10.41 20L20 10.42L29.59 20H10.41ZM38 23C38 23 34 27.33 34 30C34 31.0609 34.4214 32.0783 35.1716 32.8284C35.9217 33.5786 36.9391 34 38 34C39.0609 34 40.0783 33.5786 40.8284 32.8284C41.5786 32.0783 42 31.0609 42 30C42 27.33 38 23 38 23Z"/>
  <path d="M48 40H0V43H48V40Z"/>
</symbol><symbol id="hit-table-61" viewBox="0 0 61 61">
<path d="M61 0L30.5 30.5L0 61V33.7973L33.7973 0H61Z" fill="#D22856"/>
<path d="M21.9192 32.3147L20.9863 33.2476L15.9785 32.0392L17.1531 37.0808L16.2831 37.9509L14.9393 31.9087L9.37565 30.7244L10.2844 29.8157L14.8378 30.8598L13.8082 26.2919L14.6831 25.417L15.8384 30.9516L21.9192 32.3147ZM15.8722 24.2279L16.6408 23.4593L20.5706 27.3892C21.2956 28.1142 21.9289 28.7925 22.4702 29.4242L22.5089 29.3855L20.5754 19.5247L21.4745 18.6256L28.5414 25.6925L27.768 26.4659L23.8769 22.5748C23.2291 21.927 22.5766 21.2197 21.9192 20.4527L21.8757 20.4962L23.8382 30.3957L22.9391 31.2948L15.8722 24.2279ZM32.6549 21.579L31.8332 22.4007L25.4962 16.0637L23.2581 18.3017L22.5283 17.5718L27.826 12.2741L28.5559 13.004L26.3179 15.242L32.6549 21.579Z" fill="white"/>
</symbol><symbol id="hit-table-74" viewBox="0 0 74 74">
<path d="M74 0L37 37L0 74V41L41 0H74Z" fill="#D22856"/>
<path d="M27.9192 37.3147L26.9863 38.2476L21.9785 37.0392L23.1531 42.0808L22.2831 42.9509L20.9393 36.9087L15.3757 35.7244L16.2844 34.8157L20.8378 35.8598L19.8082 31.2919L20.6831 30.417L21.8384 35.9516L27.9192 37.3147ZM21.8722 29.2279L22.6408 28.4593L26.5706 32.3892C27.2956 33.1142 27.9289 33.7925 28.4702 34.4242L28.5089 34.3855L26.5754 24.5247L27.4745 23.6256L34.5414 30.6925L33.768 31.4659L29.8769 27.5748C29.2291 26.927 28.5766 26.2197 27.9192 25.4527L27.8757 25.4962L29.8382 35.3957L28.9391 36.2948L21.8722 29.2279ZM38.6549 26.579L37.8332 27.4007L31.4962 21.0637L29.2581 23.3017L28.5283 22.5718L33.826 17.2741L34.5559 18.004L32.3179 20.242L38.6549 26.579Z" fill="white"/>
</symbol><symbol id="like-heart" viewBox="0 0 13 12">
<path d="M6.46867 12C6.3589 12.0014 6.25012 11.9798 6.14988 11.9367C6.04963 11.8935 5.96033 11.8298 5.88815 11.75C1.95926 7.42 1.03665 6.44 0.860416 6.17C0.307088 5.49497 0.00416162 4.66056 0 3.8C0.00441359 3.07425 0.223059 2.36473 0.63034 1.7545C1.03762 1.14428 1.61668 0.658598 2.29973 0.354328C2.98278 0.0500576 3.74155 -0.0602132 4.48721 0.036425C5.23287 0.133063 5.93456 0.432611 6.51014 0.9C7.22774 0.319491 8.13412 0.00090711 9.07066 0C10.1136 0.00264761 11.1129 0.404172 11.8494 1.11652C12.5859 1.82888 12.9995 2.79391 12.9995 3.8C13.014 4.67715 12.6845 5.5272 12.0769 6.18L7.03883 11.74C6.9678 11.8185 6.88016 11.8814 6.78182 11.9246C6.68348 11.9677 6.5767 11.99 6.46867 11.99V12ZM2.07329 5.28C2.29099 5.54 4.63381 8.12 6.46867 10.14L10.947 5.2C11.3073 4.81798 11.5005 4.3163 11.486 3.8C11.486 3.18205 11.2316 2.5894 10.7786 2.15244C10.3256 1.71548 9.71126 1.47 9.07066 1.47C8.69007 1.47297 8.31512 1.55909 7.97398 1.7219C7.63285 1.8847 7.33439 2.11996 7.10103 2.41C7.02566 2.49603 6.9321 2.56553 6.82661 2.61382C6.72113 2.66211 6.60615 2.68809 6.48941 2.69C6.37337 2.68847 6.25936 2.6605 6.15667 2.60836C6.05398 2.55622 5.96552 2.4814 5.89852 2.39C5.66784 2.10104 5.37087 1.86758 5.03093 1.70796C4.69099 1.54833 4.31732 1.46688 3.93926 1.47C3.48505 1.47534 3.04153 1.6036 2.65919 1.84016C2.27684 2.07673 1.97103 2.41211 1.77658 2.8081C1.58213 3.2041 1.50684 3.64481 1.5593 4.08006C1.61176 4.51531 1.78985 4.9276 2.07329 5.27V5.28Z" fill="#D22856"/>
</symbol><symbol id="logo-color-desktop" viewBox="0 0 147 40">
  <path d="M72.1933 18.4251C72.1932 18.0924 72.3255 17.7728 72.562 17.5348C72.7985 17.2967 73.1204 17.1591 73.4588 17.1514H80.6703C85.7826 17.1514 89.1473 19.8272 89.1473 24.2113V24.2705C89.1473 29.0693 85.0695 31.5575 80.2484 31.5575H74.7544V38.2916C74.7702 38.4663 74.7488 38.6423 74.6916 38.8084C74.6344 38.9745 74.5426 39.1271 74.4222 39.2565C74.3017 39.3859 74.1552 39.4892 73.992 39.5599C73.8287 39.6306 73.6522 39.6671 73.4738 39.6671C73.2954 39.6671 73.119 39.6306 72.9557 39.5599C72.7925 39.4892 72.6459 39.3859 72.5255 39.2565C72.405 39.1271 72.3133 38.9745 72.2561 38.8084C72.1989 38.6423 72.1775 38.4663 72.1933 38.2916V18.4251ZM80.3489 29.2865C84.0952 29.2865 86.556 27.3117 86.556 24.3495V24.2903C86.556 21.1108 84.1354 19.4619 80.5297 19.4619H74.8047V29.247L80.3489 29.2865Z"/>
  <path d="M94.0186 18.2671C94.0028 18.0924 94.0242 17.9164 94.0814 17.7502C94.1386 17.5841 94.2304 17.4315 94.3508 17.3021C94.4713 17.1728 94.6178 17.0695 94.781 16.9988C94.9443 16.9281 95.1208 16.8916 95.2992 16.8916C95.4776 16.8916 95.654 16.9281 95.8173 16.9988C95.9806 17.0695 96.1271 17.1728 96.2475 17.3021C96.368 17.4315 96.4597 17.5841 96.5169 17.7502C96.5741 17.9164 96.5955 18.0924 96.5798 18.2671V38.2915C96.5955 38.4662 96.5741 38.6422 96.5169 38.8084C96.4597 38.9745 96.368 39.1271 96.2475 39.2565C96.1271 39.3858 95.9806 39.4891 95.8173 39.5598C95.654 39.6305 95.4776 39.667 95.2992 39.667C95.1208 39.667 94.9443 39.6305 94.781 39.5598C94.6178 39.4891 94.4713 39.3858 94.3508 39.2565C94.2304 39.1271 94.1386 38.9745 94.0814 38.8084C94.0242 38.6422 94.0028 38.4662 94.0186 38.2915V18.2671Z"/>
  <path d="M103.199 18.2963C103.206 17.9697 103.343 17.6587 103.579 17.4285C103.815 17.1984 104.132 17.0671 104.464 17.0621H104.816C105.077 17.0673 105.332 17.137 105.559 17.2647C105.785 17.3923 105.975 17.5739 106.111 17.7927L119.862 35.0229V18.2371C119.862 17.9123 119.993 17.6009 120.226 17.3713C120.46 17.1417 120.777 17.0127 121.107 17.0127C121.437 17.0127 121.754 17.1417 121.988 17.3713C122.221 17.6009 122.352 17.9123 122.352 18.2371V38.3306C122.358 38.4834 122.332 38.6357 122.275 38.7782C122.219 38.9207 122.134 39.0504 122.025 39.1594C121.916 39.2685 121.785 39.3545 121.641 39.4123C121.497 39.4702 121.343 39.4986 121.187 39.4958H121.057C120.79 39.4777 120.531 39.3987 120.301 39.265C120.071 39.1313 119.876 38.9466 119.731 38.7256L105.67 21.0907V38.3306C105.667 38.6489 105.541 38.9542 105.317 39.1838C105.093 39.4134 104.788 39.5498 104.464 39.5649C104.136 39.5597 103.823 39.4271 103.593 39.1959C103.363 38.9647 103.236 38.6537 103.239 38.3306V18.2963H103.199Z"/>
  <path d="M128.74 18.2671C128.724 18.0924 128.746 17.9164 128.803 17.7502C128.86 17.5841 128.952 17.4315 129.072 17.3021C129.193 17.1728 129.339 17.0695 129.503 16.9988C129.666 16.9281 129.842 16.8916 130.021 16.8916C130.199 16.8916 130.376 16.9281 130.539 16.9988C130.702 17.0695 130.849 17.1728 130.969 17.3021C131.09 17.4315 131.181 17.5841 131.239 17.7502C131.296 17.9164 131.317 18.0924 131.301 18.2671V30.4417L144.198 17.4377C144.462 17.1686 144.822 17.0095 145.202 16.9933C145.531 17.0059 145.842 17.1419 146.072 17.3734C146.302 17.6048 146.433 17.9141 146.438 18.2375C146.43 18.4056 146.39 18.5708 146.317 18.7233C146.245 18.8758 146.142 19.0127 146.016 19.1261L137.981 26.9463L146.648 37.3733C146.875 37.6312 147 37.9606 147 38.3014C146.996 38.4721 146.958 38.6404 146.887 38.7965C146.817 38.9527 146.716 39.0936 146.59 39.2111C146.464 39.3286 146.315 39.4203 146.153 39.4811C145.991 39.5419 145.818 39.5705 145.644 39.5653C145.441 39.5598 145.243 39.5045 145.068 39.4045C144.892 39.3044 144.745 39.1629 144.64 38.9926L136.193 28.6348L131.301 33.4335V38.2718C131.301 38.4365 131.268 38.5995 131.204 38.7517C131.14 38.9038 131.046 39.0421 130.928 39.1585C130.809 39.2749 130.669 39.3673 130.514 39.4303C130.359 39.4933 130.193 39.5258 130.026 39.5258C129.858 39.5258 129.692 39.4933 129.538 39.4303C129.383 39.3673 129.242 39.2749 129.124 39.1585C129.005 39.0421 128.911 38.9038 128.847 38.7517C128.783 38.5995 128.75 38.4365 128.75 38.2718V18.2671H128.74Z"/>
  <path d="M98.9401 9.74577C97.9749 9.74578 97.0491 9.36951 96.3656 8.69946C95.6822 8.02942 95.2969 7.12028 95.2942 6.17139C95.2942 7.11937 94.9111 8.02853 94.2293 8.69886C93.5474 9.36919 92.6226 9.74577 91.6583 9.74577C92.6235 9.74839 93.5483 10.1272 94.2299 10.7991C94.9115 11.471 95.2942 12.3811 95.2942 13.33C95.2969 12.3802 95.6818 11.4701 96.365 10.7985C97.0482 10.1268 97.974 9.74838 98.9401 9.74577Z" fill="#D22856"/>
  <path d="M43.287 19.0665C43.5381 19.0665 43.7792 19.0665 44.0202 19.0665C43.8019 18.6987 43.4897 18.3932 43.1145 18.1802C42.7393 17.9672 42.3141 17.8541 41.8809 17.852C41.4627 17.8517 41.055 17.7231 40.7147 17.4842C40.3745 17.2452 40.1185 16.9078 39.9826 16.519C39.2588 16.7243 38.5561 16.9954 37.8834 17.3287H38.0743C38.607 17.3287 39.118 17.5368 39.4947 17.9071C39.8714 18.2775 40.083 18.7798 40.083 19.3035C40.088 19.3989 40.088 19.4945 40.083 19.5899C41.109 19.2223 42.1953 19.0449 43.287 19.0665Z" fill="#D22856"/>
  <path d="M60.7332 27.6472L55.5406 6.56621C55.179 4.24582 52.9291 0 46.9028 0C46.5033 0 46.1201 0.156044 45.8375 0.433804C45.555 0.711564 45.3962 1.08829 45.3962 1.4811C45.3962 1.87391 45.555 2.25063 45.8375 2.52839C46.1201 2.80615 46.5033 2.9622 46.9028 2.9622C51.7741 2.9622 52.4973 6.6452 52.5676 7.05003L57.3484 26.5018H55.2493C55.0321 24.805 54.4439 23.1744 53.525 21.7222C52.6061 20.2701 51.3783 19.0307 49.926 18.0892C49.4712 18.2774 49.0829 18.5932 48.8096 18.9971C48.5363 19.401 48.3901 19.8751 48.3893 20.3602C48.3948 20.4457 48.3948 20.5314 48.3893 20.6169C49.6107 21.4404 50.6131 22.5401 51.3122 23.8236C52.0113 25.1072 52.3867 26.537 52.4069 27.9928C52.4008 28.4894 52.3538 28.9847 52.2663 29.4739C51.9375 31.5714 50.8559 33.484 49.2173 34.8657C47.5786 36.2474 45.4911 37.007 43.3322 37.007C41.1734 37.007 39.0859 36.2474 37.4472 34.8657C35.8086 33.484 34.727 31.5714 34.3982 29.4739C34.3107 28.9847 34.2636 28.4894 34.2576 27.9928C34.2733 26.6229 34.5993 25.2737 35.2118 24.0432C34.7037 24.0081 34.2282 23.7847 33.8814 23.4181C33.5346 23.0515 33.3424 22.569 33.3436 22.0684C33.3453 21.889 33.277 21.7159 33.1528 21.5846C32.181 23.0752 31.5662 24.7633 31.3549 26.5215H29.4868C29.1663 23.6174 27.7658 20.9319 25.5542 18.9809C23.3427 17.0298 20.4759 15.9507 17.5044 15.9507C14.5329 15.9507 11.6662 17.0298 9.45463 18.9809C7.24307 20.9319 5.84259 23.6174 5.5221 26.5215H3.44302L8.23394 7.05003C8.29421 6.6452 9.0475 2.9622 13.8987 2.9622C14.2983 2.9622 14.6815 2.80615 14.964 2.52839C15.2465 2.25063 15.4053 1.87391 15.4053 1.4811C15.4053 1.08829 15.2465 0.711564 14.964 0.433804C14.6815 0.156044 14.2983 0 13.8987 0C7.87236 0 5.62254 4.24582 5.26096 6.56621L0.0582358 27.6472C-0.00612168 27.8617 -0.0173251 28.0883 0.0255611 28.308C0.0684473 28.5277 0.164178 28.7341 0.304759 28.91C0.44534 29.0859 0.62669 29.2262 0.833664 29.3191C1.04064 29.4121 1.26723 29.455 1.49451 29.4443H5.51206C5.59378 30.055 5.72135 30.659 5.89372 31.2512C5.95717 31.1429 5.99172 31.0206 5.99416 30.8957C5.99416 30.372 6.2058 29.8697 6.58252 29.4993C6.95923 29.129 7.47017 28.9209 8.00293 28.9209C8.16525 28.9248 8.32675 28.9446 8.48504 28.9802C8.44252 28.6526 8.41904 28.323 8.41473 27.9928C8.41742 27.4964 8.46109 27.0011 8.5453 26.5117C8.86708 24.4074 9.94627 22.4864 11.5867 21.0981C13.2271 19.7097 15.3198 18.9461 17.4843 18.9461C19.6489 18.9461 21.7416 19.7097 23.382 21.0981C25.0224 22.4864 26.1016 24.4074 26.4234 26.5117C26.5076 27.0011 26.5513 27.4964 26.554 27.9928C26.5638 29.6507 26.1017 31.2782 25.2199 32.6915C24.3381 34.1047 23.0717 35.2472 21.5639 35.9899C20.0561 36.7326 18.3671 37.0458 16.6877 36.8942C15.0083 36.7425 13.4056 36.132 12.0607 35.1317C11.6982 35.4412 11.235 35.6128 10.755 35.6155C10.5569 35.6181 10.3679 35.6973 10.2288 35.8359C10.0897 35.9745 10.0117 36.1613 10.0117 36.356C10.009 36.6321 9.94739 36.9046 9.83092 37.1558C11.9797 38.9066 14.6835 39.8636 17.4743 39.8613C20.4223 39.8738 23.2728 38.8236 25.4864 36.9095C27.7 34.9953 29.1232 32.35 29.4868 29.4739H31.3147C31.6456 32.3691 33.0499 35.0431 35.2593 36.9848C37.4688 38.9266 40.3285 40 43.2921 40C46.2557 40 49.1154 38.9266 51.3248 36.9848C53.5343 35.0431 54.9385 32.3691 55.2694 29.4739H59.2869C59.5191 29.4904 59.7519 29.4503 59.9647 29.3573C60.1774 29.2642 60.3635 29.121 60.5065 28.9404C60.6495 28.7598 60.7451 28.5473 60.7846 28.3217C60.8241 28.0961 60.8065 27.8645 60.7332 27.6472Z" fill="#D22856"/>
  <path d="M50.9203 15.9168C50.3273 15.9181 49.7398 15.8044 49.1915 15.5822C48.6432 15.36 48.1448 15.0336 47.725 14.6218C47.3052 14.21 46.9721 13.7208 46.7448 13.1823C46.5176 12.6437 46.4006 12.0664 46.4006 11.4834C46.3979 12.6601 45.9206 13.7878 45.0733 14.6189C44.2259 15.45 43.0778 15.9168 41.8809 15.9168C43.0788 15.9194 44.2268 16.3884 45.0739 17.2211C45.9209 18.0538 46.3979 19.1825 46.4006 20.3601C46.4006 19.1817 46.8768 18.0515 47.7244 17.2182C48.572 16.385 49.7216 15.9168 50.9203 15.9168Z" fill="#283645"/>
  <path d="M38.0743 19.3828C37.3417 19.3828 36.6392 19.0967 36.1212 18.5875C35.6032 18.0783 35.3122 17.3876 35.3122 16.6675C35.3122 17.3859 35.0226 18.0751 34.5068 18.584C33.9909 19.093 33.291 19.3802 32.5602 19.3828C33.2901 19.3828 33.99 19.6679 34.5062 20.1752C35.0223 20.6826 35.3122 21.3708 35.3122 22.0883C35.3149 21.3699 35.607 20.6817 36.1247 20.1746C36.6424 19.6675 37.3435 19.3828 38.0743 19.3828Z" fill="#283645"/>
  <path d="M10.785 33.6406C10.056 33.6354 9.35856 33.347 8.84491 32.8384C8.33126 32.3297 8.04302 31.642 8.04303 30.9253C8.04304 31.6437 7.75342 32.3329 7.2376 32.8419C6.72178 33.3508 6.02182 33.638 5.29102 33.6406C6.02182 33.6433 6.72178 33.9305 7.2376 34.4394C7.75342 34.9484 8.04304 35.6375 8.04303 36.356C8.04302 35.6392 8.33126 34.9516 8.84491 34.4429C9.35856 33.9342 10.056 33.6459 10.785 33.6406Z" fill="#283645"/>
</symbol><symbol id="logo-color-tablet" viewBox="0 0 145 40">
  <path d="M71.005 18.5486C71.0049 18.2125 71.1358 17.8898 71.3697 17.6494C71.6037 17.409 71.922 17.2701 72.2568 17.2623H79.39C84.4469 17.2623 87.7751 19.9645 87.7751 24.3918V24.4516C87.7751 29.2977 83.7415 31.8105 78.9727 31.8105H73.5384V38.611C73.5539 38.7874 73.5328 38.9651 73.4762 39.1329C73.4196 39.3006 73.3289 39.4547 73.2097 39.5854C73.0906 39.716 72.9457 39.8204 72.7842 39.8918C72.6227 39.9631 72.4481 40 72.2717 40C72.0952 40 71.9207 39.9631 71.7592 39.8918C71.5977 39.8204 71.4527 39.716 71.3336 39.5854C71.2145 39.4547 71.1237 39.3006 71.0671 39.1329C71.0106 38.9651 70.9894 38.7874 71.005 38.611V18.5486ZM79.0721 29.5171C82.7778 29.5171 85.2119 27.5228 85.2119 24.5314V24.4716C85.2119 21.2608 82.8175 19.5956 79.2509 19.5956H73.588V29.4772L79.0721 29.5171Z"/>
  <path d="M92.5935 18.389C92.5779 18.2126 92.5991 18.0349 92.6556 17.8671C92.7122 17.6994 92.803 17.5452 92.9221 17.4146C93.0412 17.2839 93.1862 17.1796 93.3477 17.1082C93.5092 17.0369 93.6837 17 93.8602 17C94.0366 17 94.2112 17.0369 94.3727 17.1082C94.5342 17.1796 94.6791 17.2839 94.7982 17.4146C94.9174 17.5452 95.0081 17.6994 95.0647 17.8671C95.1213 18.0349 95.1425 18.2126 95.1269 18.389V38.611C95.1425 38.7874 95.1213 38.9651 95.0647 39.1329C95.0081 39.3006 94.9174 39.4548 94.7982 39.5854C94.6791 39.7161 94.5342 39.8204 94.3727 39.8918C94.2112 39.9631 94.0366 40 93.8602 40C93.6837 40 93.5092 39.9631 93.3477 39.8918C93.1862 39.8204 93.0412 39.7161 92.9221 39.5854C92.803 39.4548 92.7122 39.3006 92.6556 39.1329C92.5991 38.9651 92.5779 38.7874 92.5935 38.611V18.389Z"/>
  <path d="M101.674 18.419C101.682 18.0891 101.816 17.775 102.05 17.5426C102.283 17.3102 102.597 17.1776 102.926 17.1725H103.273C103.532 17.1778 103.784 17.2482 104.008 17.3771C104.232 17.5061 104.42 17.6894 104.555 17.9104L118.156 35.3104V18.3591C118.156 18.0312 118.286 17.7167 118.517 17.4848C118.748 17.2529 119.061 17.1227 119.388 17.1227C119.715 17.1227 120.028 17.2529 120.259 17.4848C120.49 17.7167 120.62 18.0312 120.62 18.3591V38.6508C120.625 38.8051 120.599 38.9589 120.544 39.1028C120.488 39.2467 120.403 39.3777 120.296 39.4878C120.188 39.5979 120.059 39.6848 119.916 39.7432C119.774 39.8016 119.621 39.8303 119.467 39.8275H119.338C119.074 39.8092 118.818 39.7294 118.591 39.5944C118.363 39.4593 118.17 39.2728 118.027 39.0497L104.118 21.2408V38.6508C104.116 38.9722 103.991 39.2805 103.769 39.5124C103.547 39.7442 103.246 39.882 102.926 39.8973C102.601 39.892 102.291 39.7581 102.064 39.5246C101.837 39.2911 101.711 38.9771 101.714 38.6508V18.419H101.674Z"/>
  <path d="M126.938 18.389C126.923 18.2126 126.944 18.0349 127.001 17.8671C127.057 17.6994 127.148 17.5452 127.267 17.4146C127.386 17.2839 127.531 17.1796 127.693 17.1082C127.854 17.0369 128.029 17 128.205 17C128.382 17 128.556 17.0369 128.718 17.1082C128.879 17.1796 129.024 17.2839 129.143 17.4146C129.262 17.5452 129.353 17.6994 129.41 17.8671C129.466 18.0349 129.487 18.2126 129.472 18.389V30.6837L142.228 17.5514C142.49 17.2797 142.845 17.1191 143.222 17.1027C143.547 17.1155 143.855 17.2528 144.082 17.4865C144.309 17.7202 144.439 18.0325 144.444 18.3591C144.437 18.529 144.396 18.6957 144.325 18.8498C144.253 19.0038 144.152 19.1421 144.026 19.2565L136.078 27.1539L144.652 37.6836C144.876 37.9441 145 38.2768 145 38.6209C144.996 38.7933 144.958 38.9633 144.889 39.121C144.819 39.2786 144.719 39.4209 144.594 39.5395C144.47 39.6582 144.323 39.7509 144.162 39.8123C144.002 39.8737 143.831 39.9026 143.659 39.8973C143.459 39.8891 143.264 39.8322 143.091 39.7314C142.918 39.6306 142.772 39.4891 142.665 39.3189L134.3 28.859L129.472 33.7051V38.591C129.472 38.7573 129.439 38.922 129.376 39.0756C129.312 39.2293 129.219 39.3689 129.102 39.4865C128.985 39.6041 128.846 39.6973 128.693 39.761C128.54 39.8246 128.376 39.8574 128.21 39.8574C128.044 39.8574 127.88 39.8246 127.727 39.761C127.574 39.6973 127.435 39.6041 127.318 39.4865C127.201 39.3689 127.108 39.2293 127.044 39.0756C126.981 38.922 126.948 38.7573 126.948 38.591V18.389H126.938Z"/>
  <path fill-rule="evenodd" clip-rule="evenodd" d="M53.8917 6.58616L58.9302 27.7312C59.0013 27.9491 59.0184 28.1815 58.98 28.4078C58.9417 28.6341 58.849 28.8472 58.7102 29.0284C58.5715 29.2096 58.3909 29.3532 58.1845 29.4465C57.978 29.5398 57.7522 29.58 57.5268 29.5635H53.5201C52.8298 35.3747 47.9494 39.8784 42.0315 39.8784C36.1136 39.8784 31.2332 35.3747 30.543 29.5635H28.5778C27.8869 35.442 22.9527 40 16.9685 40C10.9742 40 6.0335 35.4266 5.35571 29.5337H1.45014C1.22961 29.5445 1.00974 29.5014 0.808914 29.4082C0.608085 29.315 0.432119 29.1743 0.295711 28.9979C0.159304 28.8214 0.0664152 28.6144 0.0248022 28.3941C-0.0168108 28.1737 -0.00593994 27.9464 0.0565069 27.7312L5.10477 6.58616C5.45562 4.25872 7.63865 0 13.4861 0C13.8738 0 14.2456 0.156518 14.5197 0.435122C14.7939 0.713727 14.9479 1.0916 14.9479 1.4856C14.9479 1.87961 14.7939 2.25748 14.5197 2.53608C14.2456 2.81468 13.8738 2.9712 13.4861 2.9712C8.7789 2.9712 8.04797 6.6654 7.9895 7.07146L3.3408 26.6022H5.37467C6.12089 20.7847 11.0272 16.2918 16.9685 16.2918C22.9066 16.2918 27.8107 20.7798 28.5611 26.5926L30.5587 26.6017C31.3043 20.8518 36.1567 16.4134 42.0315 16.4134C47.9178 16.4134 52.7776 20.8691 53.5086 26.6353V26.5824H55.6459L51.007 7.07146C50.9387 6.6654 50.237 2.9712 45.5104 2.9712C45.1227 2.9712 44.7509 2.81468 44.4767 2.53608C44.2026 2.25748 44.0485 1.87961 44.0485 1.4856C44.0485 1.0916 44.2026 0.713727 44.4767 0.435122C44.7509 0.156518 45.1227 0 45.5104 0C51.3578 0 53.5408 4.25872 53.8917 6.58616ZM25.6722 29.5635C25.7448 29.1018 25.7825 28.6283 25.7825 28.1459C25.7825 27.6164 25.7371 27.0977 25.65 26.5935C24.9252 22.3982 21.3141 19.2097 16.9685 19.2097C12.6203 19.2097 9.00753 22.402 8.28571 26.601C8.19945 27.1028 8.15447 27.619 8.15447 28.1459C8.15447 28.6205 8.19096 29.0864 8.26125 29.541C8.92191 33.8136 12.5687 37.0821 16.9685 37.0821C21.3605 37.0821 25.0023 33.8251 25.6722 29.5635ZM50.6138 29.5635C50.6874 29.102 50.7256 28.6285 50.7256 28.1459C50.7256 23.2777 46.8331 19.3313 42.0315 19.3313C37.2299 19.3313 33.3374 23.2777 33.3374 28.1459C33.3374 28.6285 33.3756 29.102 33.4492 29.5635C34.118 33.7577 37.7058 36.9605 42.0315 36.9605C46.3572 36.9605 49.945 33.7577 50.6138 29.5635Z" fill="#D22856"/>
</symbol><symbol id="logo-desktop" viewBox="0 0 147 40">
<path d="M72.1933 18.4249C72.1932 18.0921 72.3255 17.7726 72.562 17.5345C72.7985 17.2965 73.1204 17.1589 73.4588 17.1511H80.6703C85.7826 17.1511 89.1473 19.827 89.1473 24.211V24.2703C89.1473 29.069 85.0695 31.5573 80.2484 31.5573H74.7544V38.2913C74.7702 38.466 74.7488 38.6421 74.6916 38.8082C74.6344 38.9743 74.5426 39.1269 74.4222 39.2563C74.3017 39.3856 74.1552 39.489 73.992 39.5596C73.8287 39.6303 73.6522 39.6668 73.4738 39.6668C73.2954 39.6668 73.119 39.6303 72.9557 39.5596C72.7925 39.489 72.6459 39.3856 72.5255 39.2563C72.405 39.1269 72.3133 38.9743 72.2561 38.8082C72.1989 38.6421 72.1775 38.466 72.1933 38.2913V18.4249ZM80.3489 29.2863C84.0952 29.2863 86.556 27.3115 86.556 24.3493V24.29C86.556 21.1106 84.1354 19.4616 80.5297 19.4616H74.8047V29.2468L80.3489 29.2863Z" fill="white"/>
<path d="M94.0186 18.2669C94.0028 18.0922 94.0242 17.9162 94.0814 17.7501C94.1386 17.5839 94.2304 17.4313 94.3508 17.302C94.4713 17.1726 94.6178 17.0693 94.781 16.9986C94.9443 16.9279 95.1208 16.8914 95.2992 16.8914C95.4776 16.8914 95.654 16.9279 95.8173 16.9986C95.9806 17.0693 96.1271 17.1726 96.2475 17.302C96.368 17.4313 96.4597 17.5839 96.5169 17.7501C96.5741 17.9162 96.5955 18.0922 96.5798 18.2669V38.2913C96.5955 38.466 96.5741 38.642 96.5169 38.8082C96.4597 38.9743 96.368 39.1269 96.2475 39.2563C96.1271 39.3856 95.9806 39.489 95.8173 39.5596C95.654 39.6303 95.4776 39.6668 95.2992 39.6668C95.1208 39.6668 94.9443 39.6303 94.781 39.5596C94.6178 39.489 94.4713 39.3856 94.3508 39.2563C94.2304 39.1269 94.1386 38.9743 94.0814 38.8082C94.0242 38.642 94.0028 38.466 94.0186 38.2913V18.2669Z" fill="white"/>
<path d="M103.199 18.2965C103.206 17.9699 103.343 17.6588 103.579 17.4287C103.815 17.1986 104.132 17.0673 104.464 17.0623H104.816C105.077 17.0675 105.332 17.1372 105.559 17.2649C105.785 17.3925 105.975 17.5741 106.111 17.7929L119.862 35.0231V18.2373C119.862 17.9125 119.993 17.6011 120.226 17.3715C120.46 17.1419 120.777 17.0129 121.107 17.0129C121.437 17.0129 121.754 17.1419 121.988 17.3715C122.221 17.6011 122.352 17.9125 122.352 18.2373V38.3308C122.358 38.4836 122.332 38.6359 122.275 38.7784C122.219 38.9209 122.134 39.0506 122.025 39.1596C121.916 39.2687 121.785 39.3547 121.641 39.4125C121.497 39.4704 121.343 39.4987 121.187 39.496H121.057C120.79 39.4779 120.531 39.3989 120.301 39.2652C120.071 39.1314 119.876 38.9468 119.731 38.7258L105.67 21.0908V38.3308C105.667 38.6491 105.541 38.9544 105.317 39.184C105.093 39.4135 104.788 39.5499 104.464 39.5651C104.136 39.5599 103.823 39.4272 103.593 39.1961C103.363 38.9649 103.236 38.6539 103.239 38.3308V18.2965H103.199Z" fill="white"/>
<path d="M128.74 18.2669C128.724 18.0922 128.746 17.9162 128.803 17.7501C128.86 17.5839 128.952 17.4313 129.072 17.302C129.193 17.1726 129.339 17.0693 129.503 16.9986C129.666 16.9279 129.842 16.8914 130.021 16.8914C130.199 16.8914 130.376 16.9279 130.539 16.9986C130.702 17.0693 130.849 17.1726 130.969 17.302C131.09 17.4313 131.181 17.5839 131.239 17.7501C131.296 17.9162 131.317 18.0922 131.301 18.2669V30.4415L144.198 17.4375C144.462 17.1684 144.822 17.0094 145.202 16.9931C145.531 17.0057 145.842 17.1418 146.072 17.3732C146.302 17.6046 146.433 17.9139 146.438 18.2373C146.43 18.4054 146.39 18.5706 146.317 18.7231C146.245 18.8756 146.142 19.0125 146.016 19.1259L137.981 26.9461L146.648 37.3731C146.875 37.631 147 37.9604 147 38.3012C146.996 38.472 146.958 38.6402 146.887 38.7964C146.817 38.9525 146.716 39.0934 146.59 39.2109C146.464 39.3284 146.315 39.4202 146.153 39.481C145.991 39.5418 145.818 39.5703 145.644 39.5651C145.442 39.557 145.245 39.5006 145.07 39.4008C144.895 39.3011 144.747 39.1609 144.64 38.9924L136.183 28.6346L131.301 33.4333V38.2716C131.301 38.4363 131.268 38.5993 131.204 38.7515C131.14 38.9036 131.046 39.0419 130.928 39.1583C130.809 39.2747 130.669 39.3671 130.514 39.4301C130.359 39.4932 130.193 39.5256 130.026 39.5256C129.858 39.5256 129.692 39.4932 129.538 39.4301C129.383 39.3671 129.242 39.2747 129.124 39.1583C129.005 39.0419 128.911 38.9036 128.847 38.7515C128.783 38.5993 128.75 38.4363 128.75 38.2716V18.2669H128.74Z" fill="white"/>
<path d="M98.9401 9.74563C97.9749 9.74563 97.0491 9.36936 96.3656 8.69932C95.6822 8.02927 95.2969 7.12014 95.2942 6.17125C95.2942 7.11923 94.9111 8.02839 94.2293 8.69872C93.5474 9.36905 92.6226 9.74563 91.6583 9.74563C92.6235 9.74825 93.5483 10.127 94.2299 10.7989C94.9115 11.4708 95.2942 12.381 95.2942 13.3299C95.2969 12.3801 95.6818 11.4699 96.365 10.7983C97.0482 10.1267 97.974 9.74824 98.9401 9.74563Z" fill="#D22856"/>
<path d="M43.287 19.0667C43.5381 19.0667 43.7792 19.0667 44.0202 19.0667C43.8019 18.6988 43.4897 18.3933 43.1145 18.1803C42.7393 17.9673 42.3141 17.8542 41.8809 17.8522C41.4627 17.8519 41.055 17.7233 40.7147 17.4843C40.3745 17.2454 40.1185 16.908 39.9826 16.5192C39.2588 16.7245 38.5561 16.9955 37.8834 17.3289H38.0743C38.607 17.3289 39.118 17.5369 39.4947 17.9073C39.8714 18.2776 40.083 18.7799 40.083 19.3037C40.088 19.399 40.088 19.4946 40.083 19.59C41.109 19.2225 42.1953 19.0451 43.287 19.0667Z" fill="white"/>
<path d="M60.7332 27.6472L55.5406 6.56621C55.179 4.24582 52.9291 0 46.9028 0C46.5033 0 46.1201 0.156044 45.8375 0.433804C45.555 0.711564 45.3962 1.08829 45.3962 1.4811C45.3962 1.87391 45.555 2.25063 45.8375 2.52839C46.1201 2.80615 46.5033 2.9622 46.9028 2.9622C51.7741 2.9622 52.4973 6.6452 52.5676 7.05003L57.3484 26.5018H55.2493C55.0321 24.805 54.4439 23.1744 53.525 21.7222C52.6061 20.2701 51.3783 19.0307 49.926 18.0892C49.4712 18.2774 49.0829 18.5932 48.8096 18.9971C48.5363 19.401 48.3901 19.8751 48.3893 20.3602C48.3948 20.4457 48.3948 20.5314 48.3893 20.6169C49.6107 21.4404 50.6131 22.5401 51.3122 23.8236C52.0113 25.1072 52.3867 26.537 52.4069 27.9928C52.4008 28.4894 52.3538 28.9847 52.2663 29.4739C51.9375 31.5714 50.8559 33.484 49.2173 34.8657C47.5786 36.2474 45.4911 37.007 43.3322 37.007C41.1734 37.007 39.0859 36.2474 37.4472 34.8657C35.8086 33.484 34.727 31.5714 34.3982 29.4739C34.3107 28.9847 34.2636 28.4894 34.2576 27.9928C34.2733 26.6229 34.5993 25.2737 35.2118 24.0432C34.7037 24.0081 34.2282 23.7847 33.8814 23.4181C33.5346 23.0515 33.3424 22.569 33.3436 22.0684C33.3453 21.889 33.277 21.7159 33.1528 21.5846C32.181 23.0752 31.5662 24.7633 31.3549 26.5215H29.4868C29.1663 23.6174 27.7658 20.9319 25.5542 18.9809C23.3427 17.0298 20.4759 15.9507 17.5044 15.9507C14.5329 15.9507 11.6662 17.0298 9.45463 18.9809C7.24307 20.9319 5.84259 23.6174 5.5221 26.5215H3.44302L8.23394 7.05003C8.29421 6.6452 9.0475 2.9622 13.8987 2.9622C14.2983 2.9622 14.6815 2.80615 14.964 2.52839C15.2465 2.25063 15.4053 1.87391 15.4053 1.4811C15.4053 1.08829 15.2465 0.711564 14.964 0.433804C14.6815 0.156044 14.2983 0 13.8987 0C7.87236 0 5.62254 4.24582 5.26096 6.56621L0.0582358 27.6472C-0.00612168 27.8617 -0.0173251 28.0883 0.0255611 28.308C0.0684473 28.5277 0.164178 28.7341 0.304759 28.91C0.44534 29.0859 0.62669 29.2262 0.833664 29.3191C1.04064 29.4121 1.26723 29.455 1.49451 29.4443H5.51206C5.59378 30.055 5.72135 30.659 5.89372 31.2512C5.95717 31.1429 5.99172 31.0206 5.99416 30.8957C5.99416 30.372 6.2058 29.8697 6.58252 29.4993C6.95923 29.129 7.47017 28.9209 8.00293 28.9209C8.16603 28.9231 8.32812 28.9463 8.48504 28.99C8.44128 28.6461 8.41781 28.2999 8.41473 27.9533C8.41742 27.4569 8.46109 26.9616 8.5453 26.4722C8.86708 24.3679 9.94627 22.4469 11.5867 21.0586C13.2271 19.6702 15.3198 18.9066 17.4843 18.9066C19.6489 18.9066 21.7416 19.6702 23.382 21.0586C25.0224 22.4469 26.1016 24.3679 26.4234 26.4722C26.5076 26.9616 26.5513 27.4569 26.554 27.9533C26.5382 30.3054 25.5807 32.5567 23.8889 34.2199C22.1971 35.8831 19.907 36.8243 17.5145 36.8399C15.5563 36.8663 13.6424 36.2668 12.0607 35.1317C11.6982 35.4412 11.235 35.6128 10.755 35.6155C10.5569 35.6181 10.3679 35.6973 10.2288 35.8359C10.0897 35.9745 10.0117 36.1613 10.0117 36.356C10.009 36.6321 9.94739 36.9046 9.83092 37.1558C11.9797 38.9066 14.6835 39.8636 17.4743 39.8613C20.4223 39.8738 23.2728 38.8236 25.4864 36.9095C27.7 34.9953 29.1232 32.35 29.4868 29.4739H31.3147C31.6456 32.3691 33.0499 35.0431 35.2593 36.9848C37.4688 38.9266 40.3285 40 43.2921 40C46.2557 40 49.1154 38.9266 51.3248 36.9848C53.5343 35.0431 54.9385 32.3691 55.2694 29.4739H59.2869C59.5191 29.4904 59.7519 29.4503 59.9647 29.3573C60.1774 29.2642 60.3635 29.121 60.5065 28.9404C60.6495 28.7598 60.7451 28.5473 60.7846 28.3217C60.8241 28.0961 60.8065 27.8645 60.7332 27.6472Z" fill="white"/>
<path d="M50.9203 15.9169C50.3273 15.9182 49.7398 15.8045 49.1915 15.5822C48.6432 15.36 48.1448 15.0337 47.725 14.6219C47.3052 14.21 46.9721 13.7209 46.7448 13.1823C46.5176 12.6438 46.4006 12.0665 46.4006 11.4835C46.3979 12.6602 45.9206 13.7878 45.0733 14.619C44.2259 15.4501 43.0778 15.9169 41.8809 15.9169C43.0788 15.9195 44.2268 16.3885 45.0739 17.2212C45.9209 18.0539 46.3979 19.1825 46.4006 20.3602C46.4006 19.1817 46.8768 18.0516 47.7244 17.2183C48.572 16.385 49.7216 15.9169 50.9203 15.9169Z" fill="#D22856"/>
<path d="M38.0743 19.3826C37.3417 19.3826 36.6392 19.0966 36.1212 18.5873C35.6032 18.0781 35.3122 17.3875 35.3122 16.6673C35.3122 17.3857 35.0226 18.0749 34.5068 18.5839C33.9909 19.0928 33.291 19.38 32.5602 19.3826C33.2901 19.3826 33.99 19.6677 34.5062 20.1751C35.0223 20.6824 35.3122 21.3706 35.3122 22.0881C35.3149 21.3697 35.607 20.6816 36.1247 20.1745C36.6424 19.6674 37.3435 19.3826 38.0743 19.3826Z" fill="#D22856"/>
<path d="M10.7851 33.6407C10.0561 33.6355 9.35868 33.3471 8.84503 32.8384C8.33138 32.3298 8.04314 31.6421 8.04316 30.9253C8.04316 31.6438 7.75354 32.333 7.23772 32.8419C6.7219 33.3508 6.02194 33.6381 5.29114 33.6407C6.02194 33.6433 6.7219 33.9305 7.23772 34.4395C7.75354 34.9484 8.04316 35.6376 8.04316 36.356C8.04314 35.6393 8.33138 34.9516 8.84503 34.4429C9.35868 33.9343 10.0561 33.6459 10.7851 33.6407Z" fill="#D22856"/>
</symbol><symbol id="logo-mobile" viewBox="0 0 74 23">
<path d="M0.00496827 1.54857C0.00487772 1.21254 0.135804 0.889818 0.369742 0.649431C0.60368 0.409043 0.922049 0.27008 1.25676 0.262266H8.39001C13.4469 0.262266 16.7751 2.9645 16.7751 7.39179V7.45162C16.7751 12.2977 12.7415 14.8105 7.97274 14.8105H2.53836V21.611C2.55394 21.7874 2.53277 21.9651 2.47619 22.1329C2.41961 22.3006 2.32887 22.4547 2.20973 22.5854C2.09058 22.716 1.94565 22.8204 1.78416 22.8918C1.62266 22.9631 1.44812 23 1.27166 23C1.0952 23 0.920671 22.9631 0.759173 22.8918C0.597674 22.8204 0.452744 22.716 0.333602 22.5854C0.21446 22.4547 0.123708 22.3006 0.0671295 22.1329C0.0105515 21.9651 -0.0106138 21.7874 0.00496827 21.611V1.54857ZM8.07209 12.5171C11.7778 12.5171 14.2119 10.5228 14.2119 7.53139V7.47156C14.2119 4.26078 11.8175 2.59556 8.25092 2.59556H2.58804V12.4772L8.07209 12.5171Z" fill="white"/>
<path d="M21.5935 1.38904C21.5779 1.21262 21.5991 1.03487 21.6556 0.867114C21.7122 0.699353 21.803 0.545245 21.9221 0.414596C22.0412 0.283947 22.1862 0.179616 22.3477 0.108238C22.5092 0.0368607 22.6837 0 22.8602 0C23.0366 0 23.2112 0.0368607 23.3727 0.108238C23.5342 0.179616 23.6791 0.283947 23.7982 0.414596C23.9174 0.545245 24.0081 0.699353 24.0647 0.867114C24.1213 1.03487 24.1425 1.21262 24.1269 1.38904V21.611C24.1425 21.7874 24.1213 21.9651 24.0647 22.1329C24.0081 22.3006 23.9174 22.4548 23.7982 22.5854C23.6791 22.7161 23.5342 22.8204 23.3727 22.8918C23.2112 22.9631 23.0366 23 22.8602 23C22.6837 23 22.5092 22.9631 22.3477 22.8918C22.1862 22.8204 22.0412 22.7161 21.9221 22.5854C21.803 22.4548 21.7122 22.3006 21.6556 22.1329C21.5991 21.9651 21.5779 21.7874 21.5935 21.611V1.38904Z" fill="white"/>
<path d="M30.674 1.41895C30.6816 1.08908 30.8163 0.775007 31.0497 0.542621C31.2831 0.310235 31.597 0.177597 31.9258 0.172531H32.2735C32.5316 0.177833 32.7843 0.248188 33.0082 0.377127C33.2322 0.506065 33.4202 0.689448 33.5551 0.910412L47.1559 18.3104V1.35912C47.1559 1.0312 47.2857 0.7167 47.5168 0.484821C47.7478 0.252942 48.0611 0.122673 48.3879 0.122673C48.7146 0.122673 49.0279 0.252942 49.259 0.484821C49.49 0.7167 49.6198 1.0312 49.6198 1.35912V21.6508C49.6252 21.8051 49.5993 21.9589 49.5435 22.1028C49.4878 22.2467 49.4034 22.3777 49.2956 22.4878C49.1877 22.5979 49.0587 22.6848 48.9163 22.7432C48.7739 22.8016 48.6211 22.8303 48.4673 22.8275H48.3382C48.0744 22.8092 47.8184 22.7294 47.5908 22.5944C47.3631 22.4593 47.17 22.2728 47.0268 22.0497L33.1179 4.24085V21.6508C33.1158 21.9722 32.991 22.2805 32.7692 22.5124C32.5474 22.7442 32.2456 22.882 31.9258 22.8973C31.6008 22.892 31.291 22.7581 31.064 22.5246C30.8369 22.2911 30.711 21.9771 30.7137 21.6508V1.41895H30.674Z" fill="white"/>
<path d="M55.9384 1.38904C55.9228 1.21262 55.944 1.03487 56.0005 0.867114C56.0571 0.699353 56.1479 0.545245 56.267 0.414596C56.3862 0.283947 56.5311 0.179616 56.6926 0.108238C56.8541 0.0368607 57.0286 0 57.2051 0C57.3815 0 57.5561 0.0368607 57.7176 0.108238C57.8791 0.179616 58.024 0.283947 58.1431 0.414596C58.2623 0.545245 58.353 0.699353 58.4096 0.867114C58.4662 1.03487 58.4874 1.21262 58.4718 1.38904V13.6837L71.2282 0.551443C71.4899 0.279712 71.8455 0.119105 72.2216 0.10273C72.5468 0.115453 72.8548 0.252812 73.0821 0.486531C73.3094 0.72025 73.4388 1.03254 73.4436 1.35912C73.4366 1.52896 73.3961 1.69572 73.3245 1.84975C73.2529 2.00379 73.1516 2.14205 73.0264 2.25655L65.0785 10.1539L73.6523 20.6836C73.8764 20.9441 73.9998 21.2768 74 21.6209C73.9961 21.7933 73.9583 21.9633 73.8887 22.121C73.8191 22.2786 73.719 22.4209 73.5943 22.5395C73.4696 22.6582 73.3228 22.7509 73.1622 22.8123C73.0016 22.8737 72.8305 22.9026 72.6588 22.8973C72.4588 22.8891 72.2639 22.8322 72.0908 22.7314C71.9177 22.6306 71.7716 22.4891 71.6653 22.3189L63.3001 11.859L58.4718 16.7051V21.591C58.4718 21.7573 58.4391 21.922 58.3757 22.0756C58.3123 22.2293 58.2194 22.3689 58.1022 22.4865C57.9851 22.6041 57.846 22.6973 57.6929 22.761C57.5398 22.8246 57.3757 22.8574 57.21 22.8574C57.0443 22.8574 56.8803 22.8246 56.7272 22.761C56.5741 22.6973 56.435 22.6041 56.3179 22.4865C56.2007 22.3689 56.1078 22.2293 56.0443 22.0756C55.9809 21.922 55.9483 21.7573 55.9483 21.591V1.38904H55.9384Z" fill="white"/>
</symbol><symbol id="logo-tablet" viewBox="0 0 145 40">
<path fill-rule="evenodd" clip-rule="evenodd" d="M53.8917 6.58616L58.9302 27.7312C59.0013 27.9491 59.0184 28.1815 58.98 28.4078C58.9417 28.6341 58.849 28.8472 58.7102 29.0284C58.5715 29.2096 58.3909 29.3532 58.1845 29.4465C57.978 29.5398 57.7522 29.58 57.5268 29.5635H53.5201C52.8298 35.3747 47.9494 39.8784 42.0315 39.8784C36.1136 39.8784 31.2332 35.3747 30.543 29.5635H28.5778C27.8869 35.442 22.9527 40 16.9685 40C10.9742 40 6.0335 35.4266 5.35571 29.5337H1.45014C1.22961 29.5445 1.00974 29.5014 0.808914 29.4082C0.608085 29.315 0.432119 29.1743 0.295711 28.9979C0.159304 28.8214 0.0664152 28.6144 0.0248022 28.3941C-0.0168108 28.1737 -0.00593994 27.9464 0.0565069 27.7312L5.10477 6.58616C5.45562 4.25872 7.63865 0 13.4861 0C13.8738 0 14.2456 0.156518 14.5197 0.435122C14.7939 0.713727 14.9479 1.0916 14.9479 1.4856C14.9479 1.87961 14.7939 2.25748 14.5197 2.53608C14.2456 2.81468 13.8738 2.9712 13.4861 2.9712C8.7789 2.9712 8.04797 6.6654 7.9895 7.07146L3.3408 26.6022H5.37467C6.12089 20.7847 11.0272 16.2918 16.9685 16.2918C22.9066 16.2918 27.8107 20.7798 28.5611 26.5926L30.5587 26.6017C31.3043 20.8518 36.1567 16.4134 42.0315 16.4134C47.9178 16.4134 52.7776 20.8691 53.5086 26.6353V26.5824H55.6459L51.007 7.07146C50.9387 6.6654 50.237 2.9712 45.5104 2.9712C45.1227 2.9712 44.7509 2.81468 44.4767 2.53608C44.2026 2.25748 44.0485 1.87961 44.0485 1.4856C44.0485 1.0916 44.2026 0.713727 44.4767 0.435122C44.7509 0.156518 45.1227 0 45.5104 0C51.3578 0 53.5408 4.25872 53.8917 6.58616ZM25.6722 29.5635C25.7448 29.1018 25.7825 28.6283 25.7825 28.1459C25.7825 27.6164 25.7371 27.0977 25.65 26.5935C24.9252 22.3982 21.3141 19.2097 16.9685 19.2097C12.6203 19.2097 9.00753 22.402 8.28571 26.601C8.19945 27.1028 8.15447 27.619 8.15447 28.1459C8.15447 28.6205 8.19096 29.0864 8.26125 29.541C8.92191 33.8136 12.5687 37.0821 16.9685 37.0821C21.3605 37.0821 25.0023 33.8251 25.6722 29.5635ZM50.6138 29.5635C50.6874 29.102 50.7256 28.6285 50.7256 28.1459C50.7256 23.2777 46.8331 19.3313 42.0315 19.3313C37.2299 19.3313 33.3374 23.2777 33.3374 28.1459C33.3374 28.6285 33.3756 29.102 33.4492 29.5635C34.118 33.7577 37.7058 36.9605 42.0315 36.9605C46.3572 36.9605 49.945 33.7577 50.6138 29.5635Z" fill="white"/>
<path d="M71.005 18.5486C71.0049 18.2125 71.1358 17.8898 71.3697 17.6494C71.6037 17.409 71.9221 17.2701 72.2568 17.2623H79.39C84.4469 17.2623 87.7751 19.9645 87.7751 24.3918V24.4516C87.7751 29.2977 83.7415 31.8105 78.9727 31.8105H73.5384V38.611C73.5539 38.7874 73.5328 38.9651 73.4762 39.1329C73.4196 39.3006 73.3289 39.4547 73.2097 39.5854C73.0906 39.716 72.9457 39.8204 72.7842 39.8918C72.6227 39.9631 72.4481 40 72.2717 40C72.0952 40 71.9207 39.9631 71.7592 39.8918C71.5977 39.8204 71.4527 39.716 71.3336 39.5854C71.2145 39.4547 71.1237 39.3006 71.0671 39.1329C71.0106 38.9651 70.9894 38.7874 71.005 38.611V18.5486ZM79.0721 29.5171C82.7778 29.5171 85.2119 27.5228 85.2119 24.5314V24.4716C85.2119 21.2608 82.8175 19.5956 79.2509 19.5956H73.588V29.4772L79.0721 29.5171Z" fill="white"/>
<path d="M92.5935 18.389C92.5779 18.2126 92.5991 18.0349 92.6556 17.8671C92.7122 17.6994 92.803 17.5452 92.9221 17.4146C93.0412 17.2839 93.1862 17.1796 93.3477 17.1082C93.5092 17.0369 93.6837 17 93.8602 17C94.0366 17 94.2112 17.0369 94.3727 17.1082C94.5342 17.1796 94.6791 17.2839 94.7982 17.4146C94.9174 17.5452 95.0081 17.6994 95.0647 17.8671C95.1213 18.0349 95.1424 18.2126 95.1269 18.389V38.611C95.1424 38.7874 95.1213 38.9651 95.0647 39.1329C95.0081 39.3006 94.9174 39.4548 94.7982 39.5854C94.6791 39.7161 94.5342 39.8204 94.3727 39.8918C94.2112 39.9631 94.0366 40 93.8602 40C93.6837 40 93.5092 39.9631 93.3477 39.8918C93.1862 39.8204 93.0412 39.7161 92.9221 39.5854C92.803 39.4548 92.7122 39.3006 92.6556 39.1329C92.5991 38.9651 92.5779 38.7874 92.5935 38.611V18.389Z" fill="white"/>
<path d="M101.674 18.419C101.682 18.0891 101.816 17.775 102.05 17.5426C102.283 17.3102 102.597 17.1776 102.926 17.1725H103.273C103.532 17.1778 103.784 17.2482 104.008 17.3771C104.232 17.5061 104.42 17.6894 104.555 17.9104L118.156 35.3104V18.3591C118.156 18.0312 118.286 17.7167 118.517 17.4848C118.748 17.2529 119.061 17.1227 119.388 17.1227C119.715 17.1227 120.028 17.2529 120.259 17.4848C120.49 17.7167 120.62 18.0312 120.62 18.3591V38.6508C120.625 38.8051 120.599 38.9589 120.544 39.1028C120.488 39.2467 120.403 39.3777 120.296 39.4878C120.188 39.5979 120.059 39.6848 119.916 39.7432C119.774 39.8016 119.621 39.8303 119.467 39.8275H119.338C119.074 39.8092 118.818 39.7294 118.591 39.5944C118.363 39.4594 118.17 39.2728 118.027 39.0497L104.118 21.2408V38.6508C104.116 38.9722 103.991 39.2805 103.769 39.5124C103.547 39.7442 103.246 39.882 102.926 39.8973C102.601 39.892 102.291 39.7581 102.064 39.5246C101.837 39.2911 101.711 38.9771 101.714 38.6508V18.419H101.674Z" fill="white"/>
<path d="M126.938 18.389C126.923 18.2126 126.944 18.0349 127.001 17.8671C127.057 17.6994 127.148 17.5452 127.267 17.4146C127.386 17.2839 127.531 17.1796 127.693 17.1082C127.854 17.0369 128.029 17 128.205 17C128.382 17 128.556 17.0369 128.718 17.1082C128.879 17.1796 129.024 17.2839 129.143 17.4146C129.262 17.5452 129.353 17.6994 129.41 17.8671C129.466 18.0349 129.487 18.2126 129.472 18.389V30.6837L142.228 17.5514C142.49 17.2797 142.845 17.1191 143.222 17.1027C143.547 17.1155 143.855 17.2528 144.082 17.4865C144.309 17.7202 144.439 18.0325 144.444 18.3591C144.437 18.529 144.396 18.6957 144.325 18.8498C144.253 19.0038 144.152 19.1421 144.026 19.2565L136.078 27.1539L144.652 37.6836C144.876 37.9441 145 38.2768 145 38.6209C144.996 38.7933 144.958 38.9633 144.889 39.121C144.819 39.2786 144.719 39.4209 144.594 39.5395C144.47 39.6582 144.323 39.7509 144.162 39.8123C144.002 39.8737 143.831 39.9026 143.659 39.8973C143.459 39.8891 143.264 39.8322 143.091 39.7314C142.918 39.6306 142.772 39.4891 142.665 39.3189L134.3 28.859L129.472 33.7051V38.591C129.472 38.7573 129.439 38.922 129.376 39.0756C129.312 39.2293 129.219 39.3689 129.102 39.4865C128.985 39.6041 128.846 39.6973 128.693 39.761C128.54 39.8246 128.376 39.8574 128.21 39.8574C128.044 39.8574 127.88 39.8246 127.727 39.761C127.574 39.6973 127.435 39.6041 127.318 39.4865C127.201 39.3689 127.108 39.2293 127.044 39.0756C126.981 38.922 126.948 38.7573 126.948 38.591V18.389H126.938Z" fill="white"/>
</symbol><symbol id="logo-wb-desktop" viewBox="0 0 147 40">
  <path d="M72.1933 18.4249C72.1932 18.0921 72.3255 17.7726 72.562 17.5345C72.7985 17.2965 73.1204 17.1589 73.4588 17.1511H80.6703C85.7826 17.1511 89.1473 19.827 89.1473 24.211V24.2703C89.1473 29.069 85.0695 31.5573 80.2484 31.5573H74.7544V38.2913C74.7702 38.466 74.7488 38.6421 74.6916 38.8082C74.6344 38.9743 74.5426 39.1269 74.4222 39.2563C74.3017 39.3856 74.1552 39.489 73.992 39.5596C73.8287 39.6303 73.6522 39.6668 73.4738 39.6668C73.2954 39.6668 73.119 39.6303 72.9557 39.5596C72.7925 39.489 72.6459 39.3856 72.5255 39.2563C72.405 39.1269 72.3133 38.9743 72.2561 38.8082C72.1989 38.6421 72.1775 38.466 72.1933 38.2913V18.4249ZM80.3489 29.2863C84.0952 29.2863 86.556 27.3115 86.556 24.3493V24.29C86.556 21.1106 84.1354 19.4616 80.5297 19.4616H74.8047V29.2468L80.3489 29.2863Z"/>
  <path d="M94.0186 18.2669C94.0028 18.0922 94.0242 17.9162 94.0814 17.7501C94.1386 17.5839 94.2304 17.4313 94.3508 17.302C94.4713 17.1726 94.6178 17.0693 94.781 16.9986C94.9443 16.9279 95.1208 16.8914 95.2992 16.8914C95.4776 16.8914 95.654 16.9279 95.8173 16.9986C95.9806 17.0693 96.1271 17.1726 96.2475 17.302C96.368 17.4313 96.4597 17.5839 96.5169 17.7501C96.5741 17.9162 96.5955 18.0922 96.5798 18.2669V38.2913C96.5955 38.466 96.5741 38.642 96.5169 38.8082C96.4597 38.9743 96.368 39.1269 96.2475 39.2563C96.1271 39.3856 95.9806 39.489 95.8173 39.5596C95.654 39.6303 95.4776 39.6668 95.2992 39.6668C95.1208 39.6668 94.9443 39.6303 94.781 39.5596C94.6178 39.489 94.4713 39.3856 94.3508 39.2563C94.2304 39.1269 94.1386 38.9743 94.0814 38.8082C94.0242 38.642 94.0028 38.466 94.0186 38.2913V18.2669Z"/>
  <path d="M103.199 18.2965C103.206 17.9699 103.343 17.6588 103.579 17.4287C103.815 17.1986 104.132 17.0673 104.464 17.0623H104.816C105.077 17.0675 105.332 17.1372 105.559 17.2649C105.785 17.3925 105.975 17.5741 106.111 17.7929L119.862 35.0231V18.2373C119.862 17.9125 119.993 17.6011 120.226 17.3715C120.46 17.1419 120.777 17.0129 121.107 17.0129C121.437 17.0129 121.754 17.1419 121.988 17.3715C122.221 17.6011 122.352 17.9125 122.352 18.2373V38.3308C122.358 38.4836 122.332 38.6359 122.275 38.7784C122.219 38.9209 122.134 39.0506 122.025 39.1596C121.916 39.2687 121.785 39.3547 121.641 39.4125C121.497 39.4704 121.343 39.4987 121.187 39.496H121.057C120.79 39.4779 120.531 39.3989 120.301 39.2652C120.071 39.1314 119.876 38.9468 119.731 38.7258L105.67 21.0908V38.3308C105.667 38.6491 105.541 38.9544 105.317 39.184C105.093 39.4135 104.788 39.5499 104.464 39.5651C104.136 39.5599 103.823 39.4272 103.593 39.1961C103.363 38.9649 103.236 38.6539 103.239 38.3308V18.2965H103.199Z"/>
  <path d="M128.74 18.2669C128.724 18.0922 128.746 17.9162 128.803 17.7501C128.86 17.5839 128.952 17.4313 129.072 17.302C129.193 17.1726 129.339 17.0693 129.503 16.9986C129.666 16.9279 129.842 16.8914 130.021 16.8914C130.199 16.8914 130.376 16.9279 130.539 16.9986C130.702 17.0693 130.849 17.1726 130.969 17.302C131.09 17.4313 131.181 17.5839 131.239 17.7501C131.296 17.9162 131.317 18.0922 131.301 18.2669V30.4415L144.198 17.4375C144.462 17.1684 144.822 17.0094 145.202 16.9931C145.531 17.0057 145.842 17.1418 146.072 17.3732C146.302 17.6046 146.433 17.9139 146.438 18.2373C146.43 18.4054 146.39 18.5706 146.317 18.7231C146.245 18.8756 146.142 19.0125 146.016 19.1259L137.981 26.9461L146.648 37.3731C146.875 37.631 147 37.9604 147 38.3012C146.996 38.472 146.958 38.6402 146.887 38.7964C146.817 38.9525 146.716 39.0934 146.59 39.2109C146.464 39.3284 146.315 39.4202 146.153 39.481C145.991 39.5418 145.818 39.5703 145.644 39.5651C145.442 39.557 145.245 39.5006 145.07 39.4008C144.895 39.3011 144.747 39.1609 144.64 38.9924L136.183 28.6346L131.301 33.4333V38.2716C131.301 38.4363 131.268 38.5993 131.204 38.7515C131.14 38.9036 131.046 39.0419 130.928 39.1583C130.809 39.2747 130.669 39.3671 130.514 39.4301C130.359 39.4932 130.193 39.5256 130.026 39.5256C129.858 39.5256 129.692 39.4932 129.538 39.4301C129.383 39.3671 129.242 39.2747 129.124 39.1583C129.005 39.0419 128.911 38.9036 128.847 38.7515C128.783 38.5993 128.75 38.4363 128.75 38.2716V18.2669H128.74Z"/>
  <path d="M98.9401 9.74563C97.9749 9.74563 97.0491 9.36936 96.3656 8.69932C95.6822 8.02927 95.2969 7.12014 95.2942 6.17125C95.2942 7.11923 94.9111 8.02839 94.2293 8.69872C93.5474 9.36905 92.6226 9.74563 91.6583 9.74563C92.6235 9.74825 93.5483 10.127 94.2299 10.7989C94.9115 11.4708 95.2942 12.381 95.2942 13.3299C95.2969 12.3801 95.6818 11.4699 96.365 10.7983C97.0482 10.1267 97.974 9.74824 98.9401 9.74563Z" fill="#D22856"/>
  <path d="M43.287 19.0667C43.5381 19.0667 43.7792 19.0667 44.0202 19.0667C43.8019 18.6988 43.4897 18.3933 43.1145 18.1803C42.7393 17.9673 42.3141 17.8542 41.8809 17.8522C41.4627 17.8519 41.055 17.7233 40.7147 17.4843C40.3745 17.2454 40.1185 16.908 39.9826 16.5192C39.2588 16.7245 38.5561 16.9955 37.8834 17.3289H38.0743C38.607 17.3289 39.118 17.5369 39.4947 17.9073C39.8714 18.2776 40.083 18.7799 40.083 19.3037C40.088 19.399 40.088 19.4946 40.083 19.59C41.109 19.2225 42.1953 19.0451 43.287 19.0667Z"/>
  <path d="M60.7332 27.6472L55.5406 6.56621C55.179 4.24582 52.9291 0 46.9028 0C46.5033 0 46.1201 0.156044 45.8375 0.433804C45.555 0.711564 45.3962 1.08829 45.3962 1.4811C45.3962 1.87391 45.555 2.25063 45.8375 2.52839C46.1201 2.80615 46.5033 2.9622 46.9028 2.9622C51.7741 2.9622 52.4973 6.6452 52.5676 7.05003L57.3484 26.5018H55.2493C55.0321 24.805 54.4439 23.1744 53.525 21.7222C52.6061 20.2701 51.3783 19.0307 49.926 18.0892C49.4712 18.2774 49.0829 18.5932 48.8096 18.9971C48.5363 19.401 48.3901 19.8751 48.3893 20.3602C48.3948 20.4457 48.3948 20.5314 48.3893 20.6169C49.6107 21.4404 50.6131 22.5401 51.3122 23.8236C52.0113 25.1072 52.3867 26.537 52.4069 27.9928C52.4008 28.4894 52.3538 28.9847 52.2663 29.4739C51.9375 31.5714 50.8559 33.484 49.2173 34.8657C47.5786 36.2474 45.4911 37.007 43.3322 37.007C41.1734 37.007 39.0859 36.2474 37.4472 34.8657C35.8086 33.484 34.727 31.5714 34.3982 29.4739C34.3107 28.9847 34.2636 28.4894 34.2576 27.9928C34.2733 26.6229 34.5993 25.2737 35.2118 24.0432C34.7037 24.0081 34.2282 23.7847 33.8814 23.4181C33.5346 23.0515 33.3424 22.569 33.3436 22.0684C33.3453 21.889 33.277 21.7159 33.1528 21.5846C32.181 23.0752 31.5662 24.7633 31.3549 26.5215H29.4868C29.1663 23.6174 27.7658 20.9319 25.5542 18.9809C23.3427 17.0298 20.4759 15.9507 17.5044 15.9507C14.5329 15.9507 11.6662 17.0298 9.45463 18.9809C7.24307 20.9319 5.84259 23.6174 5.5221 26.5215H3.44302L8.23394 7.05003C8.29421 6.6452 9.0475 2.9622 13.8987 2.9622C14.2983 2.9622 14.6815 2.80615 14.964 2.52839C15.2465 2.25063 15.4053 1.87391 15.4053 1.4811C15.4053 1.08829 15.2465 0.711564 14.964 0.433804C14.6815 0.156044 14.2983 0 13.8987 0C7.87236 0 5.62254 4.24582 5.26096 6.56621L0.0582358 27.6472C-0.00612168 27.8617 -0.0173251 28.0883 0.0255611 28.308C0.0684473 28.5277 0.164178 28.7341 0.304759 28.91C0.44534 29.0859 0.62669 29.2262 0.833664 29.3191C1.04064 29.4121 1.26723 29.455 1.49451 29.4443H5.51206C5.59378 30.055 5.72135 30.659 5.89372 31.2512C5.95717 31.1429 5.99172 31.0206 5.99416 30.8957C5.99416 30.372 6.2058 29.8697 6.58252 29.4993C6.95923 29.129 7.47017 28.9209 8.00293 28.9209C8.16603 28.9231 8.32812 28.9463 8.48504 28.99C8.44128 28.6461 8.41781 28.2999 8.41473 27.9533C8.41742 27.4569 8.46109 26.9616 8.5453 26.4722C8.86708 24.3679 9.94627 22.4469 11.5867 21.0586C13.2271 19.6702 15.3198 18.9066 17.4843 18.9066C19.6489 18.9066 21.7416 19.6702 23.382 21.0586C25.0224 22.4469 26.1016 24.3679 26.4234 26.4722C26.5076 26.9616 26.5513 27.4569 26.554 27.9533C26.5382 30.3054 25.5807 32.5567 23.8889 34.2199C22.1971 35.8831 19.907 36.8243 17.5145 36.8399C15.5563 36.8663 13.6424 36.2668 12.0607 35.1317C11.6982 35.4412 11.235 35.6128 10.755 35.6155C10.5569 35.6181 10.3679 35.6973 10.2288 35.8359C10.0897 35.9745 10.0117 36.1613 10.0117 36.356C10.009 36.6321 9.94739 36.9046 9.83092 37.1558C11.9797 38.9066 14.6835 39.8636 17.4743 39.8613C20.4223 39.8738 23.2728 38.8236 25.4864 36.9095C27.7 34.9953 29.1232 32.35 29.4868 29.4739H31.3147C31.6456 32.3691 33.0499 35.0431 35.2593 36.9848C37.4688 38.9266 40.3285 40 43.2921 40C46.2557 40 49.1154 38.9266 51.3248 36.9848C53.5343 35.0431 54.9385 32.3691 55.2694 29.4739H59.2869C59.5191 29.4904 59.7519 29.4503 59.9647 29.3573C60.1774 29.2642 60.3635 29.121 60.5065 28.9404C60.6495 28.7598 60.7451 28.5473 60.7846 28.3217C60.8241 28.0961 60.8065 27.8645 60.7332 27.6472Z"/>
  <path d="M50.9203 15.9169C50.3273 15.9182 49.7398 15.8045 49.1915 15.5822C48.6432 15.36 48.1448 15.0337 47.725 14.6219C47.3052 14.21 46.9721 13.7209 46.7448 13.1823C46.5176 12.6438 46.4006 12.0665 46.4006 11.4835C46.3979 12.6602 45.9206 13.7878 45.0733 14.619C44.2259 15.4501 43.0778 15.9169 41.8809 15.9169C43.0788 15.9195 44.2268 16.3885 45.0739 17.2212C45.9209 18.0539 46.3979 19.1825 46.4006 20.3602C46.4006 19.1817 46.8768 18.0516 47.7244 17.2183C48.572 16.385 49.7216 15.9169 50.9203 15.9169Z" fill="#D22856"/>
  <path d="M38.0743 19.3826C37.3417 19.3826 36.6392 19.0966 36.1212 18.5873C35.6032 18.0781 35.3122 17.3875 35.3122 16.6673C35.3122 17.3857 35.0226 18.0749 34.5068 18.5839C33.9909 19.0928 33.291 19.38 32.5602 19.3826C33.2901 19.3826 33.99 19.6677 34.5062 20.1751C35.0223 20.6824 35.3122 21.3706 35.3122 22.0881C35.3149 21.3697 35.607 20.6816 36.1247 20.1745C36.6424 19.6674 37.3435 19.3826 38.0743 19.3826Z" fill="#D22856"/>
  <path d="M10.7851 33.6407C10.0561 33.6355 9.35868 33.3471 8.84503 32.8384C8.33138 32.3298 8.04314 31.6421 8.04316 30.9253C8.04316 31.6438 7.75354 32.333 7.23772 32.8419C6.7219 33.3508 6.02194 33.6381 5.29114 33.6407C6.02194 33.6433 6.7219 33.9305 7.23772 34.4395C7.75354 34.9484 8.04316 35.6376 8.04316 36.356C8.04314 35.6393 8.33138 34.9516 8.84503 34.4429C9.35868 33.9343 10.0561 33.6459 10.7851 33.6407Z" fill="#D22856"/>
</symbol><symbol id="logo-wb-mobile" viewBox="0 0 74 23">
  <path d="M0.00496827 1.54857C0.00487772 1.21254 0.135804 0.889818 0.369742 0.649431C0.60368 0.409043 0.922049 0.27008 1.25676 0.262266H8.39001C13.4469 0.262266 16.7751 2.9645 16.7751 7.39179V7.45162C16.7751 12.2977 12.7415 14.8105 7.97274 14.8105H2.53836V21.611C2.55394 21.7874 2.53277 21.9651 2.47619 22.1329C2.41961 22.3006 2.32887 22.4547 2.20973 22.5854C2.09058 22.716 1.94565 22.8204 1.78416 22.8918C1.62266 22.9631 1.44812 23 1.27166 23C1.0952 23 0.920671 22.9631 0.759173 22.8918C0.597674 22.8204 0.452744 22.716 0.333602 22.5854C0.21446 22.4547 0.123708 22.3006 0.0671295 22.1329C0.0105515 21.9651 -0.0106138 21.7874 0.00496827 21.611V1.54857ZM8.07209 12.5171C11.7778 12.5171 14.2119 10.5228 14.2119 7.53139V7.47156C14.2119 4.26078 11.8175 2.59556 8.25092 2.59556H2.58804V12.4772L8.07209 12.5171Z"/>
  <path d="M21.5935 1.38904C21.5779 1.21262 21.5991 1.03487 21.6556 0.867114C21.7122 0.699353 21.803 0.545245 21.9221 0.414596C22.0412 0.283947 22.1862 0.179616 22.3477 0.108238C22.5092 0.0368607 22.6837 0 22.8602 0C23.0366 0 23.2112 0.0368607 23.3727 0.108238C23.5342 0.179616 23.6791 0.283947 23.7982 0.414596C23.9174 0.545245 24.0081 0.699353 24.0647 0.867114C24.1213 1.03487 24.1425 1.21262 24.1269 1.38904V21.611C24.1425 21.7874 24.1213 21.9651 24.0647 22.1329C24.0081 22.3006 23.9174 22.4548 23.7982 22.5854C23.6791 22.7161 23.5342 22.8204 23.3727 22.8918C23.2112 22.9631 23.0366 23 22.8602 23C22.6837 23 22.5092 22.9631 22.3477 22.8918C22.1862 22.8204 22.0412 22.7161 21.9221 22.5854C21.803 22.4548 21.7122 22.3006 21.6556 22.1329C21.5991 21.9651 21.5779 21.7874 21.5935 21.611V1.38904Z"/>
  <path d="M30.674 1.41895C30.6816 1.08908 30.8163 0.775007 31.0497 0.542621C31.2831 0.310235 31.597 0.177597 31.9258 0.172531H32.2735C32.5316 0.177833 32.7843 0.248188 33.0082 0.377127C33.2322 0.506065 33.4202 0.689448 33.5551 0.910412L47.1559 18.3104V1.35912C47.1559 1.0312 47.2857 0.7167 47.5168 0.484821C47.7478 0.252942 48.0611 0.122673 48.3879 0.122673C48.7146 0.122673 49.0279 0.252942 49.259 0.484821C49.49 0.7167 49.6198 1.0312 49.6198 1.35912V21.6508C49.6252 21.8051 49.5993 21.9589 49.5435 22.1028C49.4878 22.2467 49.4034 22.3777 49.2956 22.4878C49.1877 22.5979 49.0587 22.6848 48.9163 22.7432C48.7739 22.8016 48.6211 22.8303 48.4673 22.8275H48.3382C48.0744 22.8092 47.8184 22.7294 47.5908 22.5944C47.3631 22.4593 47.17 22.2728 47.0268 22.0497L33.1179 4.24085V21.6508C33.1158 21.9722 32.991 22.2805 32.7692 22.5124C32.5474 22.7442 32.2456 22.882 31.9258 22.8973C31.6008 22.892 31.291 22.7581 31.064 22.5246C30.8369 22.2911 30.711 21.9771 30.7137 21.6508V1.41895H30.674Z"/>
  <path d="M55.9384 1.38904C55.9228 1.21262 55.944 1.03487 56.0005 0.867114C56.0571 0.699353 56.1479 0.545245 56.267 0.414596C56.3862 0.283947 56.5311 0.179616 56.6926 0.108238C56.8541 0.0368607 57.0286 0 57.2051 0C57.3815 0 57.5561 0.0368607 57.7176 0.108238C57.8791 0.179616 58.024 0.283947 58.1431 0.414596C58.2623 0.545245 58.353 0.699353 58.4096 0.867114C58.4662 1.03487 58.4874 1.21262 58.4718 1.38904V13.6837L71.2282 0.551443C71.4899 0.279712 71.8455 0.119105 72.2216 0.10273C72.5468 0.115453 72.8548 0.252812 73.0821 0.486531C73.3094 0.72025 73.4388 1.03254 73.4436 1.35912C73.4366 1.52896 73.3961 1.69572 73.3245 1.84975C73.2529 2.00379 73.1516 2.14205 73.0264 2.25655L65.0785 10.1539L73.6523 20.6836C73.8764 20.9441 73.9998 21.2768 74 21.6209C73.9961 21.7933 73.9583 21.9633 73.8887 22.121C73.8191 22.2786 73.719 22.4209 73.5943 22.5395C73.4696 22.6582 73.3228 22.7509 73.1622 22.8123C73.0016 22.8737 72.8305 22.9026 72.6588 22.8973C72.4588 22.8891 72.2639 22.8322 72.0908 22.7314C71.9177 22.6306 71.7716 22.4891 71.6653 22.3189L63.3001 11.859L58.4718 16.7051V21.591C58.4718 21.7573 58.4391 21.922 58.3757 22.0756C58.3123 22.2293 58.2194 22.3689 58.1022 22.4865C57.9851 22.6041 57.846 22.6973 57.6929 22.761C57.5398 22.8246 57.3757 22.8574 57.21 22.8574C57.0443 22.8574 56.8803 22.8246 56.7272 22.761C56.5741 22.6973 56.435 22.6041 56.3179 22.4865C56.2007 22.3689 56.1078 22.2293 56.0443 22.0756C55.9809 21.922 55.9483 21.7573 55.9483 21.591V1.38904H55.9384Z"/>
</symbol><symbol id="logo-wb-tablet" viewBox="0 0 145 40">
  <path fill-rule="evenodd" clip-rule="evenodd" d="M53.8917 6.58616L58.9302 27.7312C59.0013 27.9491 59.0184 28.1815 58.98 28.4078C58.9417 28.6341 58.849 28.8472 58.7102 29.0284C58.5715 29.2096 58.3909 29.3532 58.1845 29.4465C57.978 29.5398 57.7522 29.58 57.5268 29.5635H53.5201C52.8298 35.3747 47.9494 39.8784 42.0315 39.8784C36.1136 39.8784 31.2332 35.3747 30.543 29.5635H28.5778C27.8869 35.442 22.9527 40 16.9685 40C10.9742 40 6.0335 35.4266 5.35571 29.5337H1.45014C1.22961 29.5445 1.00974 29.5014 0.808914 29.4082C0.608085 29.315 0.432119 29.1743 0.295711 28.9979C0.159304 28.8214 0.0664152 28.6144 0.0248022 28.3941C-0.0168108 28.1737 -0.00593994 27.9464 0.0565069 27.7312L5.10477 6.58616C5.45562 4.25872 7.63865 0 13.4861 0C13.8738 0 14.2456 0.156518 14.5197 0.435122C14.7939 0.713727 14.9479 1.0916 14.9479 1.4856C14.9479 1.87961 14.7939 2.25748 14.5197 2.53608C14.2456 2.81468 13.8738 2.9712 13.4861 2.9712C8.7789 2.9712 8.04797 6.6654 7.9895 7.07146L3.3408 26.6022H5.37467C6.12089 20.7847 11.0272 16.2918 16.9685 16.2918C22.9066 16.2918 27.8107 20.7798 28.5611 26.5926L30.5587 26.6017C31.3043 20.8518 36.1567 16.4134 42.0315 16.4134C47.9178 16.4134 52.7776 20.8691 53.5086 26.6353V26.5824H55.6459L51.007 7.07146C50.9387 6.6654 50.237 2.9712 45.5104 2.9712C45.1227 2.9712 44.7509 2.81468 44.4767 2.53608C44.2026 2.25748 44.0485 1.87961 44.0485 1.4856C44.0485 1.0916 44.2026 0.713727 44.4767 0.435122C44.7509 0.156518 45.1227 0 45.5104 0C51.3578 0 53.5408 4.25872 53.8917 6.58616ZM25.6722 29.5635C25.7448 29.1018 25.7825 28.6283 25.7825 28.1459C25.7825 27.6164 25.7371 27.0977 25.65 26.5935C24.9252 22.3982 21.3141 19.2097 16.9685 19.2097C12.6203 19.2097 9.00753 22.402 8.28571 26.601C8.19945 27.1028 8.15447 27.619 8.15447 28.1459C8.15447 28.6205 8.19096 29.0864 8.26125 29.541C8.92191 33.8136 12.5687 37.0821 16.9685 37.0821C21.3605 37.0821 25.0023 33.8251 25.6722 29.5635ZM50.6138 29.5635C50.6874 29.102 50.7256 28.6285 50.7256 28.1459C50.7256 23.2777 46.8331 19.3313 42.0315 19.3313C37.2299 19.3313 33.3374 23.2777 33.3374 28.1459C33.3374 28.6285 33.3756 29.102 33.4492 29.5635C34.118 33.7577 37.7058 36.9605 42.0315 36.9605C46.3572 36.9605 49.945 33.7577 50.6138 29.5635Z"/>
  <path d="M71.005 18.5486C71.0049 18.2125 71.1358 17.8898 71.3697 17.6494C71.6037 17.409 71.9221 17.2701 72.2568 17.2623H79.39C84.4469 17.2623 87.7751 19.9645 87.7751 24.3918V24.4516C87.7751 29.2977 83.7415 31.8105 78.9727 31.8105H73.5384V38.611C73.5539 38.7874 73.5328 38.9651 73.4762 39.1329C73.4196 39.3006 73.3289 39.4547 73.2097 39.5854C73.0906 39.716 72.9457 39.8204 72.7842 39.8918C72.6227 39.9631 72.4481 40 72.2717 40C72.0952 40 71.9207 39.9631 71.7592 39.8918C71.5977 39.8204 71.4527 39.716 71.3336 39.5854C71.2145 39.4547 71.1237 39.3006 71.0671 39.1329C71.0106 38.9651 70.9894 38.7874 71.005 38.611V18.5486ZM79.0721 29.5171C82.7778 29.5171 85.2119 27.5228 85.2119 24.5314V24.4716C85.2119 21.2608 82.8175 19.5956 79.2509 19.5956H73.588V29.4772L79.0721 29.5171Z"/>
  <path d="M92.5935 18.389C92.5779 18.2126 92.5991 18.0349 92.6556 17.8671C92.7122 17.6994 92.803 17.5452 92.9221 17.4146C93.0412 17.2839 93.1862 17.1796 93.3477 17.1082C93.5092 17.0369 93.6837 17 93.8602 17C94.0366 17 94.2112 17.0369 94.3727 17.1082C94.5342 17.1796 94.6791 17.2839 94.7982 17.4146C94.9174 17.5452 95.0081 17.6994 95.0647 17.8671C95.1213 18.0349 95.1424 18.2126 95.1269 18.389V38.611C95.1424 38.7874 95.1213 38.9651 95.0647 39.1329C95.0081 39.3006 94.9174 39.4548 94.7982 39.5854C94.6791 39.7161 94.5342 39.8204 94.3727 39.8918C94.2112 39.9631 94.0366 40 93.8602 40C93.6837 40 93.5092 39.9631 93.3477 39.8918C93.1862 39.8204 93.0412 39.7161 92.9221 39.5854C92.803 39.4548 92.7122 39.3006 92.6556 39.1329C92.5991 38.9651 92.5779 38.7874 92.5935 38.611V18.389Z"/>
  <path d="M101.674 18.419C101.682 18.0891 101.816 17.775 102.05 17.5426C102.283 17.3102 102.597 17.1776 102.926 17.1725H103.273C103.532 17.1778 103.784 17.2482 104.008 17.3771C104.232 17.5061 104.42 17.6894 104.555 17.9104L118.156 35.3104V18.3591C118.156 18.0312 118.286 17.7167 118.517 17.4848C118.748 17.2529 119.061 17.1227 119.388 17.1227C119.715 17.1227 120.028 17.2529 120.259 17.4848C120.49 17.7167 120.62 18.0312 120.62 18.3591V38.6508C120.625 38.8051 120.599 38.9589 120.544 39.1028C120.488 39.2467 120.403 39.3777 120.296 39.4878C120.188 39.5979 120.059 39.6848 119.916 39.7432C119.774 39.8016 119.621 39.8303 119.467 39.8275H119.338C119.074 39.8092 118.818 39.7294 118.591 39.5944C118.363 39.4594 118.17 39.2728 118.027 39.0497L104.118 21.2408V38.6508C104.116 38.9722 103.991 39.2805 103.769 39.5124C103.547 39.7442 103.246 39.882 102.926 39.8973C102.601 39.892 102.291 39.7581 102.064 39.5246C101.837 39.2911 101.711 38.9771 101.714 38.6508V18.419H101.674Z"/>
  <path d="M126.938 18.389C126.923 18.2126 126.944 18.0349 127.001 17.8671C127.057 17.6994 127.148 17.5452 127.267 17.4146C127.386 17.2839 127.531 17.1796 127.693 17.1082C127.854 17.0369 128.029 17 128.205 17C128.382 17 128.556 17.0369 128.718 17.1082C128.879 17.1796 129.024 17.2839 129.143 17.4146C129.262 17.5452 129.353 17.6994 129.41 17.8671C129.466 18.0349 129.487 18.2126 129.472 18.389V30.6837L142.228 17.5514C142.49 17.2797 142.845 17.1191 143.222 17.1027C143.547 17.1155 143.855 17.2528 144.082 17.4865C144.309 17.7202 144.439 18.0325 144.444 18.3591C144.437 18.529 144.396 18.6957 144.325 18.8498C144.253 19.0038 144.152 19.1421 144.026 19.2565L136.078 27.1539L144.652 37.6836C144.876 37.9441 145 38.2768 145 38.6209C144.996 38.7933 144.958 38.9633 144.889 39.121C144.819 39.2786 144.719 39.4209 144.594 39.5395C144.47 39.6582 144.323 39.7509 144.162 39.8123C144.002 39.8737 143.831 39.9026 143.659 39.8973C143.459 39.8891 143.264 39.8322 143.091 39.7314C142.918 39.6306 142.772 39.4891 142.665 39.3189L134.3 28.859L129.472 33.7051V38.591C129.472 38.7573 129.439 38.922 129.376 39.0756C129.312 39.2293 129.219 39.3689 129.102 39.4865C128.985 39.6041 128.846 39.6973 128.693 39.761C128.54 39.8246 128.376 39.8574 128.21 39.8574C128.044 39.8574 127.88 39.8246 127.727 39.761C127.574 39.6973 127.435 39.6041 127.318 39.4865C127.201 39.3689 127.108 39.2293 127.044 39.0756C126.981 38.922 126.948 38.7573 126.948 38.591V18.389H126.938Z"/>
</symbol><symbol id="mail-icon"><path d="M14.91 1.68c1.2-.93.91-1.68-.65-1.68H3.73c-1.56 0-1.85.76-.66 1.68l3.75 2.9a3.7 3.7 0 004.35 0l3.74-2.9z" fill="#D22856"/><path d="M11.91 6.5L9.7 8.25c-.08.04-.17.08-.26.1l-.1.05c-.1.05-.22.07-.34.09l-.33-.06-.12-.07a1.18 1.18 0 01-.24-.13L6.08 6.5l-3.9-2.97C1 2.6 0 3.03 0 4.48v5.86a2.48 2.48 0 00.82 1.87 2.87 2.87 0 002.01.79h12.32a3.04 3.04 0 002.02-.78c.27-.25.48-.54.62-.87.14-.32.21-.67.21-1.01V4.48c0-1.45-1-1.86-2.18-.93L11.91 6.5z" fill="#D22856"/></symbol><symbol id="microsoft-logo" viewBox="0 0 44 41">
<path d="M20.908 19.5238H0V0H20.908V19.5238Z" fill="#F05423"/>
<path d="M44 19.5238H23.092V0H44V19.5238Z" fill="#84C441"/>
<path d="M20.908 41H0V21.4762H20.908V41Z" fill="#2DABE2"/>
<path d="M44 41H23.092V21.4762H44V41Z" fill="#F9BC15"/>
</symbol><symbol id="no" viewBox="0 0 27 27">
<path d="M15.6444 13.5065L26.5531 2.58654C26.6947 2.44667 26.8071 2.28009 26.8838 2.09645C26.9605 1.91281 27 1.71577 27 1.51674C27 1.31772 26.9605 1.12068 26.8838 0.937041C26.8071 0.753403 26.6947 0.58682 26.5531 0.446952C26.268 0.165899 25.8837 0.00834432 25.4834 0.00834432C25.0831 0.00834432 24.6988 0.165899 24.4137 0.446952L13.505 11.3669L2.58626 0.446952C2.44641 0.305366 2.27984 0.192953 2.09622 0.11623C1.9126 0.0395068 1.71558 0 1.51658 0C1.31758 0 1.12056 0.0395068 0.936941 0.11623C0.753322 0.192953 0.586757 0.305366 0.446904 0.446952C0.165881 0.73209 0.00834343 1.11638 0.00834343 1.51674C0.00834343 1.91711 0.165881 2.3014 0.446904 2.58654L11.3657 13.5065L0.446904 24.4164C0.305333 24.5562 0.192932 24.7228 0.116217 24.9064C0.0395025 25.0901 0 25.2871 0 25.4861C0 25.6852 0.0395025 25.8822 0.116217 26.0658C0.192932 26.2495 0.305333 26.4161 0.446904 26.5559C0.730723 26.8394 1.11545 26.9987 1.51658 26.9987C1.91771 26.9987 2.30244 26.8394 2.58626 26.5559L13.505 15.6461L24.4137 26.5559C24.698 26.839 25.0823 26.9985 25.4834 27C25.7826 26.9997 26.075 26.9108 26.3237 26.7444C26.5724 26.5781 26.7662 26.3417 26.8806 26.0653C26.9951 25.7888 27.0251 25.4847 26.9668 25.1912C26.9085 24.8977 26.7645 24.6281 26.5531 24.4164L15.6444 13.5065Z" fill="#F25B26"/>
</symbol><symbol id="open-menu-btn" viewBox="0 0 50 24">
<path d="M1.13659 0.00020839C0.986512 -0.00251551 0.837358 0.0214885 0.698091 0.0707781C0.558823 0.120068 0.432317 0.193625 0.326173 0.28703C0.22003 0.380436 0.136442 0.49176 0.0804303 0.614315C0.024419 0.73687 -0.00285856 0.868124 0.000236809 1.00019V3.00016C0.000236809 3.26537 0.119959 3.51972 0.333067 3.70725C0.546174 3.89478 0.83521 4.00014 1.13659 4.00014H48.8634C49.0135 4.00286 49.1626 3.97886 49.3019 3.92957C49.4412 3.88028 49.5677 3.80672 49.6738 3.71332C49.78 3.61991 49.8636 3.50859 49.9196 3.38603C49.9756 3.26348 50.0029 3.13222 49.9998 3.00016V1.00019C49.9998 0.734979 49.88 0.48063 49.6669 0.293097C49.4538 0.105563 49.1648 0.00020839 48.8634 0.00020839H1.13659ZM1.13659 10C0.986512 9.99731 0.837358 10.0213 0.698091 10.0706C0.558823 10.1199 0.432317 10.1935 0.326173 10.2869C0.22003 10.3803 0.136442 10.4916 0.0804303 10.6141C0.024419 10.7367 -0.00285856 10.868 0.000236809 11V13C0.000236809 13.2652 0.119959 13.5195 0.333067 13.7071C0.546174 13.8946 0.83521 14 1.13659 14H48.8634C49.0135 14.0027 49.1626 13.9787 49.3019 13.9294C49.4412 13.8801 49.5677 13.8065 49.6738 13.7131C49.78 13.6197 49.8636 13.5084 49.9196 13.3859C49.9756 13.2633 50.0029 13.132 49.9998 13V11C49.9998 10.7348 49.88 10.4805 49.6669 10.2929C49.4538 10.1054 49.1648 10 48.8634 10H1.13659ZM1.13659 19.9999C0.986512 19.9971 0.837358 20.0211 0.698091 20.0704C0.558823 20.1197 0.432317 20.1933 0.326173 20.2867C0.22003 20.3801 0.136442 20.4914 0.0804303 20.614C0.024419 20.7365 -0.00285856 20.8678 0.000236809 20.9998V22.9998C0.000236809 23.265 0.119959 23.5194 0.333067 23.7069C0.546174 23.8944 0.83521 23.9998 1.13659 23.9998H48.8634C49.0135 24.0025 49.1626 23.9785 49.3019 23.9292C49.4412 23.8799 49.5677 23.8064 49.6738 23.713C49.78 23.6196 49.8636 23.5082 49.9196 23.3857C49.9756 23.2631 50.0029 23.1319 49.9998 22.9998V20.9998C49.9998 20.7346 49.88 20.4803 49.6669 20.2927C49.4538 20.1052 49.1648 19.9999 48.8634 19.9999H1.13659Z" fill="white"/>
</symbol><symbol id="panorama-day" viewBox="0 0 140 36">
<rect width="140" height="36" fill="#D22856"/>
<path d="M26.9316 22H25.1211V14.9453H21.9688V22H20.1523V13.4336H26.9316V22ZM34.3379 22L33.7168 19.9609H30.5938L29.9727 22H28.0156L31.0391 13.3984H33.2598L36.2949 22H34.3379ZM33.2832 18.4375C32.709 16.5898 32.3848 15.5449 32.3105 15.3027C32.2402 15.0605 32.1895 14.8691 32.1582 14.7285C32.0293 15.2285 31.6602 16.4648 31.0508 18.4375H33.2832ZM44.3984 22H42.5879V18.3027H39.1953V22H37.3789V13.4336H39.1953V16.791H42.5879V13.4336H44.3984V22ZM54.3418 17.7051C54.3418 19.123 53.9902 20.2129 53.2871 20.9746C52.584 21.7363 51.5762 22.1172 50.2637 22.1172C48.9512 22.1172 47.9434 21.7363 47.2402 20.9746C46.5371 20.2129 46.1855 19.1191 46.1855 17.6934C46.1855 16.2676 46.5371 15.1797 47.2402 14.4297C47.9473 13.6758 48.959 13.2988 50.2754 13.2988C51.5918 13.2988 52.5977 13.6777 53.293 14.4355C53.9922 15.1934 54.3418 16.2832 54.3418 17.7051ZM48.0898 17.7051C48.0898 18.6621 48.2715 19.3828 48.6348 19.8672C48.998 20.3516 49.541 20.5938 50.2637 20.5938C51.7129 20.5938 52.4375 19.6309 52.4375 17.7051C52.4375 15.7754 51.7168 14.8105 50.2754 14.8105C49.5527 14.8105 49.0078 15.0547 48.6406 15.543C48.2734 16.0273 48.0898 16.748 48.0898 17.7051ZM57.9336 17.4648H58.5312C59.0898 17.4648 59.5078 17.3555 59.7852 17.1367C60.0625 16.9141 60.2012 16.5918 60.2012 16.1699C60.2012 15.7441 60.084 15.4297 59.8496 15.2266C59.6191 15.0234 59.2559 14.9219 58.7598 14.9219H57.9336V17.4648ZM62.0352 16.1055C62.0352 17.0273 61.7461 17.7324 61.168 18.2207C60.5938 18.709 59.7754 18.9531 58.7129 18.9531H57.9336V22H56.1172V13.4336H58.8535C59.8926 13.4336 60.6816 13.6582 61.2207 14.1074C61.7637 14.5527 62.0352 15.2188 62.0352 16.1055ZM68.8965 22L68.2754 19.9609H65.1523L64.5312 22H62.5742L65.5977 13.3984H67.8184L70.8535 22H68.8965ZM67.8418 18.4375C67.2676 16.5898 66.9434 15.5449 66.8691 15.3027C66.7988 15.0605 66.748 14.8691 66.7168 14.7285C66.5879 15.2285 66.2188 16.4648 65.6094 18.4375H67.8418ZM75.5645 22L73.502 15.2793H73.4492C73.5234 16.6465 73.5605 17.5586 73.5605 18.0156V22H71.9375V13.4336H74.4102L76.4375 19.9844H76.4727L78.623 13.4336H81.0957V22H79.4023V17.9453C79.4023 17.7539 79.4043 17.5332 79.4082 17.2832C79.416 17.0332 79.4434 16.3691 79.4902 15.291H79.4375L77.2285 22H75.5645ZM88.502 22L87.8809 19.9609H84.7578L84.1367 22H82.1797L85.2031 13.3984H87.4238L90.459 22H88.502ZM87.4473 18.4375C86.873 16.5898 86.5488 15.5449 86.4746 15.3027C86.4043 15.0605 86.3535 14.8691 86.3223 14.7285C86.1934 15.2285 85.8242 16.4648 85.2148 18.4375H87.4473ZM93.6406 20.4883H94.3027C94.8691 19.3555 95.3164 18.2246 95.6445 17.0957C95.9727 15.9629 96.2168 14.7422 96.377 13.4336H101.369V20.4883H102.512V24.4961H100.76V22H95.3926V24.4961H93.6406V20.4883ZM97.8184 14.9453C97.6934 15.8398 97.4844 16.7871 97.1914 17.7871C96.9023 18.7871 96.5762 19.6875 96.2129 20.4883H99.5586V14.9453H97.8184ZM110.855 22H109.045V18.3027H105.652V22H103.836V13.4336H105.652V16.791H109.045V13.4336H110.855V22ZM115.906 18.7129L113.902 22H111.887L114.324 18.2324C113.84 18.0371 113.469 17.7363 113.211 17.3301C112.953 16.9199 112.824 16.4375 112.824 15.8828C112.824 15.0977 113.102 14.4941 113.656 14.0723C114.215 13.6465 115.016 13.4336 116.059 13.4336H118.848V22H117.031V18.7129H115.906ZM117.031 14.9219H116.135C115.666 14.9219 115.303 15.0059 115.045 15.1738C114.787 15.3418 114.658 15.6211 114.658 16.0117C114.658 16.3906 114.783 16.6895 115.033 16.9082C115.283 17.127 115.666 17.2363 116.182 17.2363H117.031V14.9219Z" fill="white"/>
</symbol><symbol id="phone-icon"><path d="M10.04 0C6.46 0 2.91.6 1.58 1.82A6.4 6.4 0 000 5.87c0 .21.09.41.25.56.15.15.37.23.59.23l3.24-.25h.08a.86.86 0 00.58-.23.78.78 0 00.24-.56V4.05a.83.83 0 01.26-.62.92.92 0 01.65-.26h8.16c.24 0 .48.09.65.25.18.17.27.4.27.63V5.6c0 .2.09.4.24.55.15.15.36.24.58.24h.09l3.28.25a.88.88 0 00.6-.23.8.8 0 00.24-.56V5.7a6.46 6.46 0 00-1.56-3.86C17.2.6 13.62 0 10.04 0zm0 10.3c-.33 0-.65.1-.93.27a1.6 1.6 0 00-.61.71 1.5 1.5 0 00.36 1.73 1.76 1.76 0 001.82.34c.3-.12.57-.32.75-.58a1.53 1.53 0 00-.2-2 1.67 1.67 0 00-1.19-.47zM8.8 6.76v-.97c0-.25-.11-.5-.3-.68-.2-.18-.45-.28-.72-.28-.27 0-.53.1-.72.28-.2.18-.3.43-.3.68v.97l-5.73 5.69a1.93 1.93 0 00-.63 1.42v1.58c0 .42.18.83.49 1.12.31.3.74.47 1.18.47h.42v.97a.95.95 0 00.3.7 1.05 1.05 0 00.74.29 1.1 1.1 0 00.74-.29.99.99 0 00.3-.7v-.97h10.91v.97c0 .26.11.51.3.7.2.19.47.29.75.29.27 0 .54-.1.74-.29.2-.19.3-.44.3-.7v-.97h.42a1.75 1.75 0 001.19-.46 1.58 1.58 0 00.48-1.13v-1.58a1.84 1.84 0 00-.62-1.42l-5.65-5.69v-.97a.96.96 0 00-.3-.7c-.2-.18-.46-.29-.74-.29-.28 0-.54.1-.74.3-.2.18-.3.43-.3.7v.96H8.78zm1.25 1.93c.66 0 1.3.19 1.86.54.55.34.98.84 1.23 1.42a3.01 3.01 0 01-.73 3.45 3.52 3.52 0 01-3.64.69 3.31 3.31 0 01-1.5-1.17 3.05 3.05 0 01.42-4c.62-.6 1.47-.93 2.36-.93z" fill="#D22856"/></symbol><symbol id="quotes" viewBox="0 0 79 63">
<path d="M35.1468 6.97257L30.8388 0C28.3886 1.48142 0 12.0588 0 39.1293C0 46.2698 0.341426 63 18.9793 63C30.2162 63 32.9778 52.8473 32.9778 49.5783C32.9778 27.8508 11.5081 35.5838 11.5081 35.5838C11.5081 17.7771 31.3911 9.06631 35.1468 6.97257Z" fill="#EFEFEF"/>
<path d="M79 6.97257L74.7322 0C72.302 1.48142 43.8833 12.0588 43.8833 39.1293C43.8833 46.2698 44.2247 63 62.8726 63C74.0995 63 76.8611 52.8473 76.8611 49.5783C76.8611 27.8508 55.3914 35.5838 55.3914 35.5838C55.3914 17.7771 75.3146 9.06631 79 6.97257Z" fill="#EFEFEF"/>
</symbol><symbol id="timer-desktop" viewBox="0 0 298 345">
<path d="M264.586 102.035L269.936 96.676C277.656 88.9579 279.066 77.7407 273.066 71.7522C267.066 65.7637 255.846 67.1533 248.136 74.8714L242.746 80.2601C221.304 62.8474 195.42 51.7734 168.016 48.288V38.7004H175.676C186.586 38.7004 195.516 29.9925 195.516 19.3552C195.516 8.71783 186.586 0 175.676 0H122.356C111.446 0 102.516 8.70784 102.516 19.3552C102.516 30.0025 111.446 38.7004 122.356 38.7004H130.016V48.288C97.2841 52.4916 66.8739 67.4402 43.5572 90.7884C20.2404 114.137 5.33669 144.563 1.18437 177.294C-2.96795 210.025 3.86613 243.208 20.6143 271.636C37.3625 300.065 63.0771 322.13 93.7233 334.37C124.369 346.61 158.213 348.332 189.944 339.266C221.675 330.199 249.497 310.858 269.046 284.277C288.594 257.695 298.763 225.377 297.956 192.394C297.149 159.411 285.412 127.629 264.586 102.035ZM149.016 306.184C127.226 306.184 105.926 299.724 87.8082 287.621C69.6906 275.518 55.5699 258.315 47.2316 238.189C38.8934 218.062 36.7123 195.916 40.964 174.55C45.2158 153.184 55.7094 133.558 71.118 118.155C86.5265 102.752 106.158 92.2625 127.529 88.0138C148.901 83.765 171.053 85.9477 191.184 94.2856C211.314 102.624 228.52 116.742 240.624 134.857C252.729 152.971 259.188 174.267 259.186 196.051C259.184 225.261 247.575 253.274 226.915 273.927C206.254 294.581 178.234 306.184 149.016 306.184Z" fill="#DEDEDE"/>
<circle cx="149" cy="196" r="117" stroke="#D22856" stroke-width="18"/>
<path d="M145.133 239H85.25V226.402L106.754 204.664C113.121 198.141 117.281 193.629 119.234 191.129C121.188 188.59 122.594 186.246 123.453 184.098C124.312 181.949 124.742 179.723 124.742 177.418C124.742 173.98 123.785 171.422 121.871 169.742C119.996 168.062 117.477 167.223 114.312 167.223C110.992 167.223 107.77 167.984 104.645 169.508C101.52 171.031 98.2578 173.199 94.8594 176.012L85.0156 164.352C89.2344 160.758 92.7305 158.219 95.5039 156.734C98.2773 155.25 101.305 154.117 104.586 153.336C107.867 152.516 111.539 152.105 115.602 152.105C120.953 152.105 125.68 153.082 129.781 155.035C133.883 156.988 137.066 159.723 139.332 163.238C141.598 166.754 142.73 170.777 142.73 175.309C142.73 179.254 142.027 182.965 140.621 186.441C139.254 189.879 137.105 193.414 134.176 197.047C131.285 200.68 126.168 205.855 118.824 212.574L107.809 222.945V223.766H145.133V239ZM215.621 221.246H205.309V239H187.613V221.246H151.051V208.648L188.609 153.336H205.309V207.184H215.621V221.246ZM187.613 207.184V192.652C187.613 190.23 187.711 186.715 187.906 182.105C188.102 177.496 188.258 174.82 188.375 174.078H187.906C186.461 177.281 184.723 180.406 182.691 183.453L166.988 207.184H187.613Z" fill="#D22856"/>
</symbol><symbol id="timer-tablet" viewBox="0 0 238 276">
<path d="M211.314 81.6277L215.587 77.3408C221.752 71.1663 222.878 62.1925 218.086 57.4017C213.294 52.6109 204.334 53.7227 198.176 59.8971L193.871 64.208C176.746 50.2779 156.074 41.4187 134.187 38.6304V30.9603H140.305C149.019 30.9603 156.151 23.994 156.151 15.4842C156.151 6.97427 149.019 0 140.305 0H97.7208C89.0075 0 81.8755 6.96627 81.8755 15.4842C81.8755 24.002 89.0075 30.9603 97.7208 30.9603H103.839V38.6304C77.6967 41.9933 53.4093 53.9522 34.7872 72.6308C16.1652 91.3093 4.26218 115.651 0.945904 141.835C-2.37038 168.02 3.08771 194.566 16.4638 217.309C29.8399 240.052 50.377 257.704 74.8528 267.496C99.3286 277.288 126.358 278.665 151.7 271.412C177.042 264.16 199.263 248.687 214.875 227.421C230.488 206.156 238.609 180.302 237.964 153.915C237.32 127.529 227.946 102.103 211.314 81.6277ZM119.013 244.947C101.61 244.947 84.5984 239.779 70.1286 230.097C55.6589 220.414 44.3813 206.652 37.7219 190.551C31.0625 174.45 29.3205 156.733 32.7162 139.64C36.1119 122.547 44.4927 106.847 56.7989 94.5241C69.105 82.2015 84.7837 73.81 101.852 70.411C118.921 67.012 136.613 68.7581 152.69 75.4285C168.768 82.0989 182.509 93.3939 192.176 107.885C201.844 122.377 207.003 139.413 207.001 156.841C206.999 180.209 197.728 202.619 181.227 219.142C164.726 235.665 142.348 244.947 119.013 244.947Z" fill="#DEDEDE"/>
<circle cx="119" cy="157" r="93" stroke="#D22856" stroke-width="16"/>
<path d="M115.906 191H68V180.922L85.2031 163.531C90.2969 158.312 93.625 154.703 95.1875 152.703C96.75 150.672 97.875 148.797 98.5625 147.078C99.25 145.359 99.5938 143.578 99.5938 141.734C99.5938 138.984 98.8281 136.938 97.2969 135.594C95.7969 134.25 93.7812 133.578 91.25 133.578C88.5938 133.578 86.0156 134.188 83.5156 135.406C81.0156 136.625 78.4062 138.359 75.6875 140.609L67.8125 131.281C71.1875 128.406 73.9844 126.375 76.2031 125.188C78.4219 124 80.8438 123.094 83.4688 122.469C86.0938 121.812 89.0312 121.484 92.2812 121.484C96.5625 121.484 100.344 122.266 103.625 123.828C106.906 125.391 109.453 127.578 111.266 130.391C113.078 133.203 113.984 136.422 113.984 140.047C113.984 143.203 113.422 146.172 112.297 148.953C111.203 151.703 109.484 154.531 107.141 157.438C104.828 160.344 100.734 164.484 94.8594 169.859L86.0469 178.156V178.812H115.906V191ZM172.297 176.797H164.047V191H149.891V176.797H120.641V166.719L150.688 122.469H164.047V165.547H172.297V176.797ZM149.891 165.547V153.922C149.891 151.984 149.969 149.172 150.125 145.484C150.281 141.797 150.406 139.656 150.5 139.062H150.125C148.969 141.625 147.578 144.125 145.953 146.562L133.391 165.547H149.891Z" fill="#D22856"/>
</symbol><symbol id="triangle-footer" viewBox="0 0 1200 123">
<path d="M599 123L-115 0H1313L599 123Z" fill="white"/>
</symbol><symbol id="triangle" viewBox="0 0 595.28 61.905">
  <path fill="#fff" d="M297.64 61.905L0 0h595.28z"/>
</symbol><symbol id="twitter-ico" viewBox="0 0 54 54">
  <circle cx="27" cy="27" r="25.5" fill="white" stroke="currentColor" stroke-width="3"/>
  <path d="M29.5641 20.1689C30.2458 19.9538 30.9837 19.9439 31.6719 20.1405C32.3602 20.3371 32.9633 20.7301 33.3947 21.2632C34.1053 21.0538 34.8055 20.816 35.5263 20.6066C35.5164 20.9258 35.4299 21.2391 35.2732 21.5237C35.1165 21.8084 34.8935 22.0574 34.6201 22.2528C34.8726 22.2788 35.1281 22.2511 35.3673 22.172C35.6064 22.0928 35.8228 21.9642 36 21.7961C35.901 22.2099 35.6999 22.597 35.4123 22.9271C35.1247 23.2572 34.7585 23.5214 34.3421 23.6992C34.095 29.9699 30.9748 34.1662 23.6533 33.9949H23.1487C22.7059 33.9949 18.7311 33.5667 18 32.2441C19.752 32.4899 21.5389 32.0976 22.984 31.1498C21.9542 30.8643 20.1316 30.7026 19.8227 28.4093C20.2108 28.5434 20.6321 28.5731 21.0378 28.495C19.7609 27.7052 18.3398 27.0391 18.4222 24.9933C18.8196 25.2988 19.3269 25.4551 19.8432 25.431C19.1018 25.2026 17.7529 22.3099 18.8959 20.8255C20.8215 22.5478 22.8604 24.1749 26.4851 24.3367C26.7117 22.2052 27.6899 20.7779 29.5641 20.1689Z" fill="#D22856"/>
</symbol><symbol id="yes" viewBox="0 0 31 21">
<path d="M30.5559 0.429509C30.4134 0.293412 30.2439 0.185389 30.0571 0.111671C29.8703 0.0379536 29.67 0 29.4676 0C29.2653 0 29.065 0.0379536 28.8782 0.111671C28.6914 0.185389 28.5219 0.293412 28.3794 0.429509L10.3744 17.4958L2.5777 10.1097C2.28714 9.85325 1.90283 9.71362 1.50573 9.72025C1.10864 9.72689 0.72977 9.87928 0.448939 10.1453C0.168108 10.4114 0.00724504 10.7703 0.0002388 11.1464C-0.00676744 11.5226 0.140631 11.8867 0.41138 12.1619L9.29124 20.5741C9.4331 20.7094 9.60187 20.8167 9.7878 20.8898C9.97372 20.9629 10.1731 21.0004 10.3744 21C10.7806 20.9986 11.1698 20.8456 11.4576 20.5741L30.5559 2.48172C30.8405 2.20822 31 1.83963 31 1.45561C31 1.0716 30.8405 0.703003 30.5559 0.429509Z" fill="#3DC644"/>
</symbol><symbol id="youtube-ico" viewBox="0 0 54 54">
  <circle cx="27" cy="27" r="25.5" fill="white" stroke="currentColor" stroke-width="3"/>
  <path d="M23.8336 33.8089C23.6463 33.9278 23.4247 33.9941 23.1963 33.9996C22.9678 34.0051 22.7426 33.9495 22.5487 33.8398C22.3548 33.7301 22.2007 33.571 22.1056 33.3824C22.0106 33.1938 21.9787 32.984 22.014 32.779V22.221C21.9787 22.016 22.0106 21.8062 22.1056 21.6176C22.2007 21.429 22.3548 21.2699 22.5487 21.1602C22.7426 21.0505 22.9678 20.9949 23.1963 21.0004C23.4247 21.0059 23.6463 21.0722 23.8336 21.1911L36.2333 26.6928C37.2556 27.1382 37.2556 27.8618 36.2333 28.3072L23.8336 33.8089Z" fill="#D22856"/>
</symbol></svg>